<?xml version="1.0" encoding="UTF-8"?>
<svg width="19px" height="19px" viewBox="0 0 19 19" version="1.1" xmlns="http://www.w3.org/2000/svg" xmlns:xlink="http://www.w3.org/1999/xlink">
    <!-- Generator: Sketch 52.4 (67378) - http://www.bohemiancoding.com/sketch -->
    <title>Chat_1_</title>
    <desc>Created with Sketch.</desc>
    <g id="New-zabuni" stroke="none" stroke-width="1" fill="none" fill-rule="evenodd">
        <g id="10" transform="translate(-913.000000, -78.000000)" fill="#9B9B9B">
            <g id="Group-18-Copy" transform="translate(34.000000, 45.000000)">
                <g id="Group-6-Copy" transform="translate(0.000000, 8.000000)">
                    <g id="bar" transform="translate(807.000000, 10.000000)">
                        <g id="Group" transform="translate(10.000000, 0.000000)">
                            <g id="Chat_1_" transform="translate(62.000000, 15.000000)">
                                <path d="M19,7.71875 C19,3.45564052 15.5443595,0 11.28125,0 L7.71875,0 C3.45564052,0 0,3.45564052 0,7.71875 C0,11.9818595 3.45564052,15.4375 7.71875,15.4375 L10.09375,15.4375 L15.4375,19 L15.4375,14.25 L15.3816797,14.25 C17.5524297,12.8843905 19,10.47375 19,7.71875 L19,7.71875 Z M13.0625,12.73475 L13.0625,14.84375 L10.09375,13.0625 L7.71875,13.0625 C4.76782026,13.0625 2.375,10.6696797 2.375,7.71875 C2.375,4.76782026 4.76782026,2.375 7.71875,2.375 L11.28125,2.375 C14.2321797,2.375 16.625,4.76782026 16.625,7.71875 C16.625,10.0426797 15.1335,11.9997108 13.0625,12.73475 L13.0625,12.73475 Z" id="Shape"></path>
                            </g>
                        </g>
                    </g>
                </g>
            </g>
        </g>
    </g>
</svg>