<?xml version="1.0" encoding="UTF-8"?>
<svg width="16px" height="11px" viewBox="0 0 16 11" version="1.1" xmlns="http://www.w3.org/2000/svg" xmlns:xlink="http://www.w3.org/1999/xlink">
    <!-- Generator: Sketch 52.4 (67378) - http://www.bohemiancoding.com/sketch -->
    <title>Page 1</title>
    <desc>Created with Sketch.</desc>
    <g id="New-zabuni" stroke="none" stroke-width="1" fill="none" fill-rule="evenodd" stroke-linecap="round">
        <g id="10" transform="translate(-218.000000, -178.000000)" stroke="#FFFFFF" stroke-width="2">
            <g id="Sidebar" transform="translate(0.000000, 114.000000)">
                <g id="Dashboard" transform="translate(16.000000, 56.000000)">
                    <g id="Page-1" transform="translate(203.000000, 9.000000)">
                        <path d="M7,5.85 L11.6091954,1.01034483 C11.9900814,0.610414492 12.6230582,0.594976035 13.0229885,0.975862069 C13.4229188,1.3567481 13.4383573,1.98972484 13.0574713,2.38965517 L7.72928014,7.98425585 C7.71652048,7.99783096 7.703312,8.01113143 7.68965517,8.02413793 C7.28972484,8.40502397 6.6567481,8.38958551 6.27586207,7.98965517 C6.27412966,7.9878702 6.27242077,7.98606547 6.27071986,7.98425585 L0.942528736,2.38965517 C0.561642701,1.98972484 0.577081158,1.3567481 0.977011494,0.975862069 C1.37694183,0.594976035 2.00991856,0.610414492 2.3908046,1.01034483 L7,5.85 Z" id="Combined-Shape"></path>
                    </g>
                </g>
            </g>
        </g>
    </g>
</svg>