<?xml version="1.0" encoding="UTF-8"?>
<svg width="41px" height="40px" viewBox="0 0 41 40" version="1.1" xmlns="http://www.w3.org/2000/svg" xmlns:xlink="http://www.w3.org/1999/xlink">
    <!-- Generator: Sketch 52.4 (67378) - http://www.bohemiancoding.com/sketch -->
    <title>file icon</title>
    <desc>Created with Sketch.</desc>
    <g id="New-zabuni" stroke="none" stroke-width="1" fill="none" fill-rule="evenodd">
        <g id="10" transform="translate(-381.000000, -3092.000000)" fill="#007AFF">
            <g id="Group-17" transform="translate(323.000000, 1788.000000)">
                <g id="Group-13" transform="translate(0.000000, 838.000000)">
                    <g id="Group-10" transform="translate(57.000000, 416.000000)">
                        <g id="upload-attachements">
                            <g id="file-icon" transform="translate(1.000000, 50.000000)">
                                <rect id="base" fill-opacity="0.1" x="0" y="0" width="40.04" height="39.6883207" rx="2.86"></rect>
                                <path d="M23.0583784,13.0195844 L23.0583784,15.7600589 L25.8231362,15.7600589 L23.0583784,13.0195844 Z M22.0594595,15.7600589 L22.0594595,12.7896232 L15.5664865,12.7896232 C15.2907849,12.7896232 15.067027,13.0111682 15.067027,13.2851909 L15.067027,26.1563361 C15.067027,26.4306063 15.2907849,26.6516562 15.5664865,26.6516562 L25.5556757,26.6516562 C25.8313773,26.6516562 26.0551351,26.4306063 26.0551351,26.1563361 L26.0551351,16.7509467 L23.0583784,16.7509467 L22.0594595,16.7509467 L22.0594595,15.7600589 Z M27.0540541,15.7615441 L27.0540541,15.7617916 L27.0540541,27.1469764 C27.0540541,27.4207515 26.8302962,27.642049 26.5545946,27.642049 L14.5675676,27.642049 C14.2918659,27.642049 14.0681081,27.4207515 14.0681081,27.1469764 L14.0681081,12.2950457 C14.0681081,12.0207755 14.2918659,11.7992305 14.5675676,11.7992305 L23.0583784,11.7992305 L23.0583784,11.8009632 L23.0583784,11.8007157 L27.0525557,15.7600589 L27.0540541,15.7600589 L27.0540541,15.7615441 Z" id="Fill-1"></path>
                            </g>
                        </g>
                    </g>
                </g>
            </g>
        </g>
    </g>
</svg>