<?xml version="1.0" encoding="UTF-8"?>
<svg width="22px" height="19px" viewBox="0 0 22 19" version="1.1" xmlns="http://www.w3.org/2000/svg" xmlns:xlink="http://www.w3.org/1999/xlink">
    <!-- Generator: Sketch 52.4 (67378) - http://www.bohemiancoding.com/sketch -->
    <title>upload icon 2</title>
    <desc>Created with Sketch.</desc>
    <g id="New-zabuni" stroke="none" stroke-width="1" fill="none" fill-rule="evenodd">
        <g id="10" transform="translate(-657.000000, -2934.000000)" fill="#007AFF" stroke="#FFFFFF" stroke-width="0.55">
            <g id="Group-17" transform="translate(323.000000, 1788.000000)">
                <g id="Group-13" transform="translate(0.000000, 838.000000)">
                    <g id="Group-6" transform="translate(57.000000, 37.000000)">
                        <g id="drag-and-drop-area" transform="translate(2.000000, 219.000000)">
                            <g id="upload-icon-2" transform="translate(275.000000, 52.000000)">
                                <path d="M16.8337296,15.6547055 C16.3781708,15.8004476 15.891447,15.5447114 15.7475381,15.0864028 C15.6036292,14.6280941 15.8575322,14.1404537 16.3140076,13.9956282 C18.5459706,13.2907495 19.677993,11.481347 19.677993,8.61691804 C19.677993,5.32626202 17.0115533,2.64973959 13.7328133,2.64973959 C10.8830502,2.64973959 8.42926579,4.6882964 7.89671116,7.49681173 L7.71980402,8.43084473 L6.80868645,8.17052542 C6.51628554,8.08711325 6.22113478,8.04494886 5.9305671,8.04494886 C4.16149577,8.04494886 2.72240665,9.48953768 2.72240665,11.2641087 C2.72240665,13.0395964 4.16149577,14.4841852 5.9305671,14.4841852 L6.10747424,14.4713526 C6.59144816,14.4530202 6.99384314,14.8141674 7.01859181,15.2935583 C7.04425709,15.7738657 6.67761018,16.182677 6.19913597,16.2083423 L6.14138908,16.2129254 C6.07172616,16.2184251 6.00206325,16.2230082 5.9305671,16.2230082 C3.20638057,16.2230082 0.99,13.998378 0.99,11.2641087 C0.99,8.52983939 3.20638057,6.30520927 5.9305671,6.30520927 C6.08822527,6.30520927 6.24588345,6.31345883 6.40354162,6.32904132 C7.38707195,3.14287968 10.3440793,0.91 13.7328133,0.91 C17.9666685,0.91 21.4103996,4.36748036 21.4103996,8.61691804 C21.4103996,12.2760542 19.8283182,14.7096731 16.8337296,15.6547055 L16.8337296,15.6547055 Z M10.6456464,9.37221067 C10.6483962,9.36946082 10.6493128,9.36487773 10.6520627,9.36212788 C10.8225535,9.19163707 11.0443749,9.10730828 11.2671129,9.10730828 C11.4889343,9.10730828 11.7116722,9.19163707 11.8812464,9.36212788 C11.8830797,9.36396111 11.8830797,9.36762758 11.8858295,9.37037743 L14.277284,11.7700815 C14.6155158,12.1101465 14.6155158,12.6610334 14.277284,13.0001818 C14.1077098,13.169756 13.8858884,13.2550014 13.664067,13.2550014 C13.4422457,13.2550014 13.2213409,13.169756 13.0517667,13.0001818 L12.1351494,12.0798981 L12.1351494,17.5548531 C12.1351494,18.0351605 11.7474203,18.4247229 11.2680295,18.4247229 C10.7895553,18.4247229 10.4018262,18.0351605 10.4018262,17.5548531 L10.4018262,12.0762316 L9.48154242,13.0001818 C9.31288484,13.169756 9.09106346,13.2550014 8.86924208,13.2550014 C8.6474207,13.2550014 8.42559932,13.169756 8.25694174,13.0001818 C7.91779335,12.6610334 7.91779335,12.1101465 8.25694174,11.7700815 L10.6456464,9.37221067 L10.6456464,9.37221067 Z" id="upload-icon"></path>
                            </g>
                        </g>
                    </g>
                </g>
            </g>
        </g>
    </g>
</svg>