<?xml version="1.0" encoding="UTF-8"?>
<svg width="159px" height="38px" viewBox="0 0 159 38" version="1.1" xmlns="http://www.w3.org/2000/svg" xmlns:xlink="http://www.w3.org/1999/xlink">
    <!-- Generator: Sketch 52.4 (67378) - http://www.bohemiancoding.com/sketch -->
    <title>zabuni</title>
    <desc>Created with Sketch.</desc>
    <g id="NEWWW" stroke="none" stroke-width="1" fill="none" fill-rule="evenodd">
        <g id="Search-page" transform="translate(-82.000000, -43.000000)">
            <g id="Group-6" transform="translate(82.000000, 43.000000)">
                <g id="zabuni">
                    <path d="M35,38 L0,38 L0,4 L35,4 L35,38 Z M27.7565325,32.1186472 L5.33280367,32.1186472 L20.1039901,14.51983 L8.44721045,14.51983 L8.44721045,10.0409536 L29.7586511,10.0409536 L14.9874647,27.5945297 L27.7565325,27.5945297 L27.7565325,32.1186472 Z" id="Combined-Shape" fill="#007AFF"></path>
                    <path d="M28.4636225,32.3627586 L6,32.3627586 L20.7974656,14.6565517 L9.11994756,14.6565517 L9.11994756,10.1503448 L30.469303,10.1503448 L15.6718374,27.8110345 L28.4636225,27.8110345 L28.4636225,32.3627586 Z M57.0222853,10.1503448 L62.3707669,10.1503448 L62.3707669,32.3627586 L57.0222853,32.3627586 L57.0222853,27.8565517 C54.9720341,30.9517241 51.4509504,33 47.4841599,33 C41.1551234,33 35.9849246,27.72 35.9849246,21.2110345 C35.9849246,14.702069 41.1551234,9.46758621 47.4841599,9.46758621 C51.4509504,9.46758621 54.9720341,11.5158621 57.0222853,14.6110345 L57.0222853,10.1503448 Z M48.5092856,28.5393103 C52.4315054,28.5393103 55.6405943,25.262069 55.6405943,21.2565517 C55.6405943,17.2055172 52.4315054,13.9737931 48.5092856,13.9737931 C44.5870658,13.9737931 41.3779768,17.2055172 41.3779768,21.2565517 C41.3779768,25.262069 44.5870658,28.5393103 48.5092856,28.5393103 Z M79.8870439,9.46758621 C86.2606511,9.46758621 91.3862792,14.7475862 91.3862792,21.2110345 C91.3862792,27.72 86.2606511,33 79.8870439,33 C76.7225257,33 73.8254315,31.68 71.7306096,29.5406897 L71.7306096,32.3627586 L66.382128,32.3627586 L66.382128,0 L71.7306096,0 L71.7306096,12.9268966 C73.8254315,10.7875862 76.7225257,9.46758621 79.8870439,9.46758621 Z M78.8619183,28.5393103 C82.8287088,28.5393103 85.993227,25.3075862 85.993227,21.2565517 C85.993227,17.2510345 82.8287088,13.9737931 78.8619183,13.9737931 C74.9396985,13.9737931 71.7306096,17.2510345 71.7306096,21.2565517 C71.7306096,25.3075862 74.9396985,28.5393103 78.8619183,28.5393103 Z M99.3198602,10.0593103 L99.3198602,20.937931 C99.3198602,22.7131034 99.2307188,25.3986207 100.434127,26.8096552 C101.503823,28.0841379 103.152939,28.6758621 104.757483,28.5848276 C106.584881,28.4937931 107.966572,27.72 108.991698,26.5365517 C110.195106,25.1255172 110.150535,22.9862069 110.150535,21.1655172 L110.150535,10.0593103 L115.499017,10.0593103 L115.499017,32.3627586 L110.150535,32.3627586 L110.150535,29.5862069 C110.150535,29.8593103 109.660258,30.3144828 109.481975,30.4510345 C108.857986,31.0882759 108.189425,31.5434483 107.431724,31.9531034 C105.024907,33.182069 101.94953,33.2731034 99.4535722,32.2717241 C96.9130435,31.2703448 95.308499,28.857931 94.6399388,26.2634483 C94.06052,23.9875862 94.06052,21.6206897 94.06052,19.3448276 L94.06052,10.0593103 L99.3198602,10.0593103 Z M135.243828,32.3627586 L135.243828,22.0758621 C135.243828,20.3006897 135.332969,17.8882759 134.129561,16.4772414 C133.059865,15.2027586 131.45532,14.6110345 129.806205,14.702069 C127.978807,14.7475862 126.597116,15.2937931 125.616561,16.4772414 C124.368582,17.8882759 124.413153,20.0275862 124.413153,21.8482759 L124.413153,32.3627586 L119.064671,32.3627586 L119.064671,10.1048276 L124.413153,10.1048276 L124.413153,13.4275862 C124.413153,13.1544828 126.953681,9.37655172 132.213022,9.74068966 C135.956959,10.0137931 138.720341,12.2441379 139.879179,15.84 C140.726021,18.3434483 140.726021,21.0289655 140.726021,23.6689655 L140.726021,32.3627586 L135.243828,32.3627586 Z M149.640157,5.91724138 L144.291676,5.91724138 L144.291676,0 L149.640157,0 L149.640157,5.91724138 Z M149.640157,32.3627586 L144.291676,32.3627586 L144.291676,10.1958621 L149.640157,10.1958621 L149.640157,32.3627586 Z M159,32.3627586 L153.651518,32.3627586 L153.651518,26.4455172 L159,26.4455172 L159,32.3627586 Z" id="zabuni.-copy-2" fill="#2E2D31"></path>
                </g>
            </g>
        </g>
    </g>
</svg>