<?xml version="1.0" encoding="UTF-8"?>
<svg width="53px" height="48px" viewBox="0 0 53 48" version="1.1" xmlns="http://www.w3.org/2000/svg" xmlns:xlink="http://www.w3.org/1999/xlink">
    <!-- Generator: Sketch 52.4 (67378) - http://www.bohemiancoding.com/sketch -->
    <title>noun_1077408_cc</title>
    <desc>Created with Sketch.</desc>
    <g id="NEWWW" stroke="none" stroke-width="1" fill="none" fill-rule="evenodd">
        <g id="Product-page" transform="translate(-347.000000, -759.000000)">
            <g id="noun_1077408_cc" transform="translate(345.000000, 759.000000)">
                <g id="Group">
                    <path d="M34.2594881,6.31049816 C30.3645636,6.31049816 26.775695,8.23332515 24.4127694,11.5869644 L23.3216595,13.1346258 L22.2304903,11.5869644 C19.8671498,8.23338405 16.2782813,6.31049816 12.3838308,6.31049816 C5.56389009,6.31049816 0.0151131466,12.3048442 0.0151131466,19.6723436 C0.0151131466,32.4189644 19.5365571,45.5025865 23.3493966,47.9356859 C27.1807274,45.6814528 46.6269612,33.5514699 46.6269612,19.6723436 C46.6276131,12.3042552 41.0794881,6.31049816 34.2594881,6.31049816 Z" id="Shape"></path>
                    <path d="M39.8873649,0.0342074503 C35.6948003,0.0342074503 31.7922895,1.85826635 28.9495363,5.09370193 C26.1062496,1.85826635 22.2048649,0.0342074503 18.0117669,0.0342074503 C9.68039294,0.0342074503 2.90158367,7.35735837 2.90158367,16.3576232 C2.90158367,32.1470318 27.2459587,46.9847446 28.2820686,47.6088035 L28.9194285,47.9928035 L29.5700643,47.6357189 C30.6084856,47.0659618 54.9974888,33.4902661 54.9974888,16.3576232 C54.9974888,7.35735837 48.2186203,0.0342074503 39.8873649,0.0342074503 Z M28.9779253,44.6209655 C25.1650858,42.1878661 5.6435826,29.1041851 5.6435826,16.3576232 C5.6435826,8.99006488 11.1923595,2.99577798 18.0123003,2.99577798 C21.9066914,2.99577798 25.4955007,4.918605 27.859019,8.27224426 L28.9495363,9.82055323 L30.0406462,8.27289211 C32.4035126,4.91931174 35.9924404,2.99642583 39.8873649,2.99642583 C46.7073649,2.99642583 52.2560233,8.99077163 52.2560233,16.358271 C52.2554899,30.2366318 32.8093154,42.3667324 28.9779253,44.6209655 Z" id="Shape" fill="#000000" fill-rule="nonzero"></path>
                </g>
            </g>
        </g>
    </g>
</svg>