<?xml version="1.0" encoding="UTF-8"?>
<svg width="151px" height="27px" viewBox="0 0 151 27" version="1.1" xmlns="http://www.w3.org/2000/svg" xmlns:xlink="http://www.w3.org/1999/xlink">
    <!-- Generator: Sketch 52.4 (67378) - http://www.bohemiancoding.com/sketch -->
    <title>pending</title>
    <desc>Created with Sketch.</desc>
    <defs>
        <polygon id="path-1" points="0 -2.84217094e-14 153 -2.84217094e-14 153 27 0 27"></polygon>
    </defs>
    <g id="NEWWW" stroke="none" stroke-width="1" fill="none" fill-rule="evenodd">
        <g id="Product-page" transform="translate(-597.000000, -755.000000)">
            <g id="pending" transform="translate(597.000000, 755.000000)">
                <g id="Group-2" transform="translate(0.000000, 0.800000)">
                    <mask id="mask-2" fill="white">
                        <use xlink:href="#path-1"></use>
                    </mask>
                    <g id="Duplicate-control"></g>
                    <polygon id="Star" fill="#000000" mask="url(#mask-2)" points="13.5 20.25 5.56489909 24.4217294 7.08036852 15.5858647 0.66073703 9.32827058 9.53244955 8.03913529 13.5 -2.84217094e-14 17.4675505 8.03913529 26.339263 9.32827058 19.9196315 15.5858647 21.4351009 24.4217294"></polygon>
                    <polygon id="Star" fill="#000000" mask="url(#mask-2)" points="44.1 20.25 36.1648991 24.4217294 37.6803685 15.5858647 31.260737 9.32827058 40.1324495 8.03913529 44.1 -2.84217094e-14 48.0675505 8.03913529 56.939263 9.32827058 50.5196315 15.5858647 52.0351009 24.4217294"></polygon>
                    <polygon id="Star" fill="#000000" mask="url(#mask-2)" points="74.7 20.25 66.7648991 24.4217294 68.2803685 15.5858647 61.860737 9.32827058 70.7324495 8.03913529 74.7 -2.84217094e-14 78.6675505 8.03913529 87.539263 9.32827058 81.1196315 15.5858647 82.6351009 24.4217294"></polygon>
                    <polygon id="Star" fill="#000000" mask="url(#mask-2)" points="105.3 20.25 97.3648991 24.4217294 98.8803685 15.5858647 92.460737 9.32827058 101.33245 8.03913529 105.3 -2.84217094e-14 109.26755 8.03913529 118.139263 9.32827058 111.719631 15.5858647 113.235101 24.4217294"></polygon>
                    <polygon id="Star" stroke="#979797" stroke-width="1.8" mask="url(#mask-2)" points="135.9 20.25 127.964899 24.4217294 129.480369 15.5858647 123.060737 9.32827058 131.93245 8.03913529 135.9 -2.84217094e-14 139.86755 8.03913529 148.739263 9.32827058 142.319631 15.5858647 143.835101 24.4217294"></polygon>
                </g>
            </g>
        </g>
    </g>
</svg>