<?xml version="1.0" encoding="UTF-8"?>
<svg width="108px" height="109px" viewBox="0 0 108 109" version="1.1" xmlns="http://www.w3.org/2000/svg" xmlns:xlink="http://www.w3.org/1999/xlink">
    <!-- Generator: Sketch 52.4 (67378) - http://www.bohemiancoding.com/sketch -->
    <title>noun_558180_cc copy</title>
    <desc>Created with Sketch.</desc>
    <g id="NEWWW" stroke="none" stroke-width="1" fill="none" fill-rule="evenodd">
        <g id="Landing-Page-Copy-4" transform="translate(-967.000000, -946.000000)" fill="#007AFF">
            <g id="noun_558180_cc-copy" transform="translate(967.000000, 946.000000)">
                <g id="Group">
                    <path d="M54,0.814281589 C24.1766235,0.814281589 3.65231026e-15,24.9710758 0,54.7699915 C-3.65231026e-15,84.5689073 24.1766235,108.725701 54,108.725701 C68.3216905,108.725701 82.0568017,103.041098 92.1837662,92.9224399 C102.310731,82.8037815 108,69.0799355 108,54.7699915 C108,24.9710758 83.8233765,0.814281589 54,0.814281589 Z M31.9614255,34.5366003 L31.9614255,34.5409909 C32.1768577,34.5319877 32.3904385,34.5853387 32.576661,34.6946725 L39.484863,38.6991979 C40.0215647,39.0104215 40.2063811,39.6980026 39.8979495,40.2360229 L39.5859375,40.7804989 L41.4931635,41.8870114 L43.5717765,43.0901271 C45.424341,42.0476578 47.572767,41.5983978 49.7109375,41.8474933 C51.000327,41.9976701 52.280847,42.3934712 53.485839,43.0506068 L54.0131827,43.3360167 L54.1801755,43.239418 L54.483399,43.0593903 C54.4848637,43.0593931 54.4863285,43.0593931 54.4877932,43.0593903 C55.0853977,42.7131745 55.7026087,42.434192 56.3334952,42.2251136 C56.964384,42.0149112 57.6089482,41.8734887 58.2539062,41.7948033 C60.404022,41.5313196 62.57304,42.0015414 64.4414062,43.0725622 L65.3554687,42.545651 L66.5068365,41.8782301 L67.658202,41.2108092 L68.4184567,40.7717176 L68.1020505,40.2228509 C67.793033,39.6866989 67.9756847,39.0018272 68.5107427,38.6904166 L75.423339,34.6902819 C75.5775924,34.6012442 75.7508009,34.550077 75.9287115,34.5409909 C76.3513413,34.5193731 76.7503662,34.7365362 76.9614255,35.1030296 L87.6005865,53.5976149 C87.9088616,54.1349134 87.7241512,54.8201356 87.1875,55.130047 L80.279298,59.1301817 C80.0206199,59.2795197 79.7131194,59.31993 79.4245919,59.2425032 C79.1360645,59.1650764 78.8902024,58.9761705 78.7412115,58.717434 L76.187988,54.2782077 L75.436524,54.7129086 L74.2851562,55.3803295 L73.1293942,56.0477504 L72.2416995,56.5614897 C72.2416005,58.3301129 71.7823035,60.0742043 70.8969735,61.6022727 C70.8084488,61.7673561 70.6800491,61.9077253 70.5234375,62.0106297 C70.4860425,62.0881911 70.4618887,62.1713031 70.4179687,62.2477404 C70.0726635,62.8473232 69.464898,63.1317979 68.8842765,63.4245076 C69.6002287,64.4892337 69.917679,65.7818461 69.2402355,66.9592047 C68.5641825,68.1352143 67.2874987,68.506814 66.0102547,68.4213842 C66.0476587,69.0711008 66.1096777,69.7353451 65.764161,70.3358272 C64.868022,71.8958216 62.9120475,72.3946377 61.3125,71.6399322 C61.26849,72.1194636 61.3861447,72.6081067 61.1323245,73.0494194 C60.1874685,74.6930453 58.052052,75.2636269 56.4125985,74.3140064 L54,72.9176933 L51.5874015,74.3140064 C49.947948,75.2636269 47.8125315,74.6930453 46.8676755,73.0494194 C46.613853,72.6081067 46.73151,72.1194636 46.6875,71.6399322 C45.0880335,72.394188 43.1320095,71.8958216 42.235839,70.3358272 C41.8917352,69.7360195 41.9521027,69.0699768 41.9897452,68.4213842 C40.7126452,68.5070388 39.4360762,68.1349895 38.7597645,66.9592047 C38.1510135,65.9009983 38.1866557,64.6479466 38.7158197,63.6308815 C36.8293118,61.7426565 35.809551,59.2093032 35.797851,56.5922265 L33.7148438,55.3847224 L31.8164063,54.2825984 L29.2587885,58.7262175 C28.948308,59.2634121 28.2619528,59.4461586 27.7250985,59.1345723 L20.8125,55.130047 C20.2757985,54.8188232 20.0909823,54.1312422 20.399414,53.593222 L31.0385745,35.0986389 C31.2298721,34.7653376 31.5779127,34.5533724 31.9614255,34.5366003 Z M32.4272453,37.2018932 L22.9086922,53.7469058 L27.874512,56.6229633 L37.3930673,40.0779506 L32.4272453,37.2018932 Z M75.5727548,37.2018932 L70.611327,40.0779506 L80.125488,56.6229633 L85.0913078,53.7469058 L75.5727548,37.2018932 Z M38.4653318,42.7212881 L32.937012,52.328635 L34.844238,53.4351498 L36.092286,54.1596535 C36.3139673,53.2516239 36.6181943,52.3577846 37.107423,51.5075326 L39.8364255,46.7609408 C40.323816,45.9138362 40.922559,45.1741169 41.5898438,44.5347417 L40.3681635,43.8234099 L38.4653318,42.7212881 Z M69.5390625,42.7256787 L68.7875985,43.1603819 L67.6318365,43.8278005 L66.4804687,44.4952237 L66.405762,44.5347417 C67.076118,45.1797373 67.6760737,45.918002 68.1635745,46.7653315 L70.892577,51.5119232 C70.905112,51.5349251 70.9168386,51.5583577 70.9277355,51.582178 C70.939818,51.6024114 70.9465702,51.6255607 70.9584952,51.6480422 C70.9645593,51.6596482 70.9704199,51.6713591 70.9760745,51.6831696 C71.412723,52.4758689 71.7389595,53.2971131 71.9472645,54.1376981 L72.0043943,54.1025706 L73.155762,53.4351498 L74.3071298,52.7677289 L75.0673823,52.328635 L69.5390625,42.7256787 Z M60.0380865,43.9683102 L60.0380865,43.9727031 C58.5517995,43.866815 57.0156322,44.1941103 55.6171875,45.0045701 L54.6196297,45.5885642 C54.618165,45.5885613 54.6167002,45.5885613 54.6152355,45.5885642 L51.3544927,47.4766611 L51.345702,47.4766611 C51.3355725,47.4841511 51.3253178,47.4914707 51.3149422,47.4986166 L48.1992187,49.3032867 L45.202149,51.0464855 C46.2679627,52.0066723 47.607786,52.4445634 48.7397452,51.7885519 L48.8320312,51.7402525 C48.8929008,51.6879605 48.9591966,51.6423276 49.029786,51.6041335 L54.0571297,48.688558 L54.1142572,48.6534306 C54.1287034,48.6443163 54.1433555,48.635532 54.158202,48.6270845 C55.539594,47.8271911 57.2325795,47.9473415 58.438476,48.8290677 L58.4428702,48.8290677 C58.6428615,48.9756474 58.8316185,49.1407878 59.000976,49.3296328 C59.132916,49.4762125 59.2432335,49.6505569 59.3525385,49.8214166 C59.3775475,49.8509247 59.4010162,49.8817024 59.422851,49.9136269 C59.4322335,49.9271159 59.444388,49.9350541 59.453613,49.9575356 C59.4930235,50.0242734 59.5254225,50.0949038 59.5502932,50.1683001 C59.878008,50.8081249 60.0035805,51.5038928 59.9458005,52.1837347 L69.1523437,57.5187112 C69.4118317,57.6688879 69.633747,57.8564627 69.8378895,58.0587966 C70.1882505,56.2706145 69.932988,54.3508793 68.9414062,52.6272192 L66.2124015,47.8806275 C65.670129,46.9382011 64.9681852,46.1514167 64.1645505,45.5358719 C62.9590995,44.6125549 61.5243712,44.0739757 60.0380865,43.9683102 Z M48.875976,44.0122212 C48.5648865,43.9928376 48.2528092,43.9958164 47.9443365,44.0166118 C45.4636102,44.1849986 43.1432077,45.5287273 41.7875985,47.8850181 L39.0585937,52.6316098 C37.167822,55.9179622 37.882782,59.9277842 40.5659182,62.3355578 C40.8454918,62.4085441 41.0862436,62.5862092 41.2382812,62.8317345 C41.4501502,62.9846067 41.6399715,63.1578922 41.8710937,63.2927815 L45.4482427,65.365299 L46.1337885,65.7604819 C46.1381835,65.7604562 46.1425785,65.7604562 46.1469735,65.7604819 L46.1513677,65.7604819 L57.5419927,72.3556547 C58.135635,72.6996223 58.8362647,72.5159189 59.1811515,71.9165609 C59.5257817,71.3174277 59.3358727,70.6007587 58.7416995,70.256791 L58.7373052,70.256791 L48.9506827,64.5837123 L46.6479495,63.2488706 C46.2955421,63.0495918 46.0774504,62.6765079 46.0768531,62.2719106 C46.0762558,61.8673132 46.293245,61.4935881 46.6450625,61.2932714 C46.99688,61.0929547 47.4292784,61.0969337 47.7773437,61.3036908 L57.735351,67.0733682 L59.8666995,68.3116113 L62.173827,69.646453 C62.7673882,69.9904207 63.4685737,69.8025514 63.812988,69.2029686 C64.1568465,68.6054091 63.9640372,67.896847 63.373536,67.5519801 L63.3691395,67.5519801 L52.4311515,61.2114805 L51.279786,60.5440596 C50.7691761,60.2216135 50.604501,59.5538403 50.9067283,59.0312746 C51.2089556,58.5087089 51.8702279,58.3178413 52.404786,58.5988798 L53.5561515,59.2663007 L64.498536,65.606798 L65.6499015,66.2742212 C66.2439082,66.6184114 66.9443895,66.4305444 67.2890625,65.8307367 C67.633776,65.2318283 67.4436825,64.5191004 66.8496105,64.1753575 L65.7070312,63.5123273 C65.7043312,63.5107536 65.7009427,63.513901 65.6982427,63.5123273 L55.423827,57.5582293 L54.7558605,57.1718277 L53.6044927,56.5044068 C53.0678115,56.1923746 52.8854911,55.5049712 53.1970761,54.9683217 C53.5086611,54.4316723 54.1963893,54.248601 54.733887,54.559227 L55.8852547,55.2266479 L66.827637,61.5671475 C67.4200237,61.9104385 68.1227662,61.7212225 68.466798,61.1236631 C68.811543,60.5245299 68.6212402,59.8074113 68.0273437,59.4638932 L58.236327,53.7908145 C58.1684043,53.7606936 58.1036352,53.7239231 58.0429687,53.6810417 C58.041504,53.6810388 58.0400392,53.6810388 58.0385745,53.6810417 L57.014649,53.0882662 C56.5775691,52.8587516 56.3413293,52.3713161 56.4321413,51.8863736 C56.5229534,51.401431 56.9195938,51.0323166 57.4101562,50.9762307 C57.3169725,50.8453881 57.2186925,50.7127402 57.09375,50.6205659 C56.770308,50.3800133 56.357073,50.2764926 55.9291995,50.3439372 C55.7152627,50.3765354 55.498311,50.4552568 55.2875985,50.5766572 L55.2084952,50.6205659 L54.9492187,50.7874217 C54.9348171,50.7980148 54.9201646,50.8082633 54.905274,50.8181584 L49.8691395,53.7381246 C47.2651402,55.2470859 43.9022902,54.1196139 42.3413077,51.406541 C42.0322917,50.8703894 42.2149432,50.1855194 42.75,49.8741089 L47.0698245,47.3581069 L50.1328125,45.5841713 C50.1626378,45.5636725 50.1934356,45.5446234 50.2250985,45.5270907 L51.657714,44.6972046 C50.746878,44.3080491 49.8092445,44.0703697 48.875976,44.0122212 Z M26.8549808,51.3494603 C27.0776123,51.355349 27.2952052,51.4172517 27.4877933,51.529488 C28.1237759,51.897631 28.3421295,52.7133283 27.9755865,53.351723 C27.6080361,53.9886152 26.7960508,54.2066696 26.1606443,53.8391162 C25.5246616,53.4709732 25.306308,52.6552759 25.672851,52.0168812 C25.9157224,51.5943162 26.3689971,51.338401 26.8549808,51.3494603 Z M81.1450193,51.3494603 C81.6310029,51.338401 82.0842776,51.5943162 82.327149,52.0168812 C82.693692,52.6552759 82.4753384,53.4709732 81.8393558,53.8391162 C81.2039492,54.2066696 80.3919639,53.9886152 80.0244135,53.351723 C79.6578705,52.7133283 79.8762241,51.897631 80.5122068,51.529488 C80.7047948,51.4172517 80.9223877,51.355349 81.1450193,51.3494603 Z M40.561524,65.1018423 C40.5349965,65.3475656 40.5730575,65.6042554 40.7109375,65.8439087 C41.0561753,66.4446156 41.7559748,66.6315856 42.3500985,66.2873931 C42.3870716,66.2662188 42.4252188,66.2471604 42.4643558,66.2303102 L40.7416995,65.2335707 C40.6759545,65.195352 40.626054,65.1423091 40.561524,65.1018423 Z M44.6967765,67.5256339 C44.6752613,67.5395528 44.6532765,67.5527332 44.6308605,67.565152 C44.036892,67.9088948 43.8422985,68.621398 44.187012,69.2205312 C44.5313947,69.8192147 45.232524,70.0033678 45.826173,69.659625 L47.1049807,68.9175586 L44.6967765,67.5256339 Z M49.341798,70.2084917 C49.3162686,70.2286524 49.2898761,70.2476972 49.2626948,70.2655723 C48.668526,70.60954 48.4742183,71.326209 48.8188485,71.9253422 C49.1634225,72.5242505 49.864365,72.7084036 50.4580072,72.364436 L51.7587885,71.6135883 L49.341798,70.2128823 L49.341798,70.2084917 Z" id="Shape"></path>
                </g>
            </g>
        </g>
    </g>
</svg>