<?xml version="1.0" encoding="UTF-8"?>
<svg width="37px" height="37px" viewBox="0 0 37 37" version="1.1" xmlns="http://www.w3.org/2000/svg" xmlns:xlink="http://www.w3.org/1999/xlink">
    <!-- Generator: Sketch 52.4 (67378) - http://www.bohemiancoding.com/sketch -->
    <title>Facebook Copy 2</title>
    <desc>Created with Sketch.</desc>
    <g id="NEWWW" stroke="none" stroke-width="1" fill="none" fill-rule="evenodd">
        <g id="Landing-Page-Copy-4" transform="translate(-877.000000, -6167.000000)" fill="#007AFF">
            <g id="Footer" transform="translate(129.000000, 6163.000000)">
                <g id="Group-5" transform="translate(667.000000, 0.000000)">
                    <path d="M118,38.9570985 C118,40.0848769 117.08586,41 115.958051,41 L106.529405,41 L106.529405,26.6714698 L111.338972,26.6714698 L112.059601,21.0880094 L106.529405,21.0880094 L106.529405,17.5222543 C106.529405,15.9056712 106.978916,14.8040968 109.297023,14.8040968 L112.25412,14.8030889 L112.25412,9.80820985 C111.742121,9.74068424 109.987415,9.58849967 107.945466,9.58849967 C103.682166,9.58849967 100.763368,12.1907551 100.763368,16.9699553 L100.763368,21.0880094 L95.9417068,21.0880094 L95.9417068,26.6714698 L100.763368,26.6714698 L100.763368,41 L83.0419493,41 C81.9141402,41 81,40.0848769 81,38.9570985 L81,6.0429015 C81,4.91411528 81.9141402,4 83.0419493,4 L115.958051,4 C117.08586,4 118,4.91411528 118,6.0429015 L118,38.9570985" id="Facebook-Copy-2"></path>
                </g>
            </g>
        </g>
    </g>
</svg>