<?xml version="1.0" encoding="UTF-8"?>
<svg width="37px" height="34px" viewBox="0 0 37 34" version="1.1" xmlns="http://www.w3.org/2000/svg" xmlns:xlink="http://www.w3.org/1999/xlink">
    <!-- Generator: Sketch 52.4 (67378) - http://www.bohemiancoding.com/sketch -->
    <title>Fill 88 Copy 2</title>
    <desc>Created with Sketch.</desc>
    <g id="NEWWW" stroke="none" stroke-width="1" fill="none" fill-rule="evenodd">
        <g id="Landing-Page-Copy-4" transform="translate(-1107.000000, -6163.000000)" fill="#007AFF">
            <g id="Footer" transform="translate(129.000000, 6163.000000)">
                <g id="Group-5" transform="translate(667.000000, 0.000000)">
                    <path d="M311.932773,10.902791 L319.144213,10.902791 L319.144213,34 L311.932773,34 L311.932773,10.902791 Z M338.847791,10.680761 C343.973028,10.680761 348,14.0031011 348,21.1577409 L348,34 L339.822689,34 L339.822689,22.0478888 C339.822689,18.9191913 338.543887,16.784053 335.730523,16.784053 C333.579127,16.784053 332.38257,18.2247137 331.825915,19.6136689 C331.617295,20.1124761 331.64939,20.8069537 331.64939,21.5014313 L331.64939,34 L323.548306,34 C323.548306,34 323.652616,12.8280654 323.548306,10.902791 L331.64939,10.902791 L331.64939,14.5282681 C332.127812,12.9426288 334.716509,10.680761 338.847791,10.680761 Z M315.405096,0 C318.066007,0 319.70187,1.72453483 319.754025,4.00363788 C319.754025,6.2421875 318.066007,8.01437261 315.354947,8.01437261 L315.302792,8.01437261 C312.693033,8.01437261 311,6.24827052 311,4.0097209 C311,1.72859017 312.742179,0 315.405096,0 Z" id="Fill-88-Copy-2"></path>
                </g>
            </g>
        </g>
    </g>
</svg>