<?xml version="1.0" encoding="UTF-8"?>
<svg width="40px" height="26px" viewBox="0 0 40 26" version="1.1" xmlns="http://www.w3.org/2000/svg" xmlns:xlink="http://www.w3.org/1999/xlink">
    <!-- Generator: Sketch 52.4 (67378) - http://www.bohemiancoding.com/sketch -->
    <title>Google+ Copy 2</title>
    <desc>Created with Sketch.</desc>
    <g id="NEWWW" stroke="none" stroke-width="1" fill="none" fill-rule="evenodd">
        <g id="Landing-Page-Copy-4" transform="translate(-796.000000, -6171.000000)" fill="#007AFF">
            <g id="Footer" transform="translate(129.000000, 6163.000000)">
                <g id="Group-5" transform="translate(667.000000, 0.000000)">
                    <path d="M12.7048794,18.4257175 L24.9062028,18.4257175 C25.7557059,24.655633 23.1923277,34 12.7048794,34 C5.68879637,34 0,28.1791347 0,20.9994937 C0,13.8198528 5.68879637,8 12.7048794,8 C15.996828,8 18.9963571,9.28081312 21.2534384,11.3827641 C18.5949,13.9524904 18.6821302,14.1053779 17.6373504,15.1745784 C16.3318712,14.0699404 14.9084331,13.2771525 12.7048794,13.2771525 C8.53666394,13.2771525 5.28337422,16.7348417 5.28337422,20.9994937 C5.28337422,25.2651583 8.53666394,28.7228475 12.7048794,28.7228475 C16.8235323,28.7228475 18.496766,26.9054091 19.5732659,23.567195 C17.5858053,23.567195 12.7048794,23.5742825 12.7048794,23.5742825 L12.7048794,18.4257175 Z M35.597849,18.6828926 L40,18.6828926 L40,21.9006192 L35.597849,21.9006192 L35.597849,26.5348339 L32.453597,26.5348339 L32.453597,21.9006192 L27.9245657,21.9006192 L27.9245657,18.6828926 L32.453597,18.6828926 L32.453597,14.178278 L35.597849,14.178278 L35.597849,18.6828926 Z" id="Google+-Copy-2"></path>
                </g>
            </g>
        </g>
    </g>
</svg>