<?xml version="1.0" encoding="UTF-8"?>
<svg width="37px" height="37px" viewBox="0 0 37 37" version="1.1" xmlns="http://www.w3.org/2000/svg" xmlns:xlink="http://www.w3.org/1999/xlink">
    <!-- Generator: Sketch 52.4 (67378) - http://www.bohemiancoding.com/sketch -->
    <title>Instagram Copy 3</title>
    <desc>Created with Sketch.</desc>
    <g id="NEWWW" stroke="none" stroke-width="1" fill="none" fill-rule="evenodd">
        <g id="Landing-Page-Copy-4" transform="translate(-953.000000, -6167.000000)" fill="#007AFF">
            <g id="Footer" transform="translate(129.000000, 6163.000000)">
                <g id="Group-5" transform="translate(667.000000, 0.000000)">
                    <path d="M189.601942,4 L161.398058,4 C158.968933,4 157,5.9638873 157,8.38796607 L157,36.6120339 C157,39.0351035 158.968933,41 161.398058,41 L189.601942,41 C192.031067,41 194,39.0351035 194,36.6120339 L194,8.38796607 C194,5.9638873 192.031067,4 189.601942,4 L189.601942,4 Z M183.594223,9.78065079 C183.594223,9.14284156 184.111938,8.62512615 184.749748,8.62512615 L188.21834,8.62512615 C188.857158,8.62512615 189.374874,9.14284156 189.374874,9.78065079 L189.374874,13.2502523 C189.374874,13.8880615 188.857158,14.4057769 188.21834,14.4057769 L184.749748,14.4057769 C184.111938,14.4057769 183.594223,13.8880615 183.594223,13.2502523 L183.594223,9.78065079 L183.594223,9.78065079 Z M175.542891,15.4442353 C179.472684,15.4442353 182.658702,18.6231896 182.658702,22.5428907 C182.658702,26.4636009 179.472684,29.641546 175.542891,29.641546 C171.614107,29.641546 168.428088,26.4636009 168.428088,22.5428907 C168.428088,18.6231896 171.614107,15.4442353 175.542891,15.4442353 L175.542891,15.4442353 Z M190.531408,36.3748739 C190.531408,37.0126831 190.013692,37.5314077 189.374874,37.5314077 L161.625126,37.5314077 C160.986308,37.5314077 160.468592,37.0126831 160.468592,36.3748739 L160.468592,19.0309031 L165.093718,19.0309031 C164.491231,19.8977989 164.287374,21.5155334 164.287374,22.5428907 C164.287374,28.7342825 169.33737,33.7721681 175.542891,33.7721681 C181.74942,33.7721681 186.799416,28.7342825 186.799416,22.5428907 C186.799416,21.5155334 186.653083,19.9230287 185.906282,19.0309031 L190.531408,19.0309031 L190.531408,36.3748739 L190.531408,36.3748739 Z" id="Instagram-Copy-3"></path>
                </g>
            </g>
        </g>
    </g>
</svg>