<?xml version="1.0" encoding="UTF-8"?>
<svg width="81px" height="127px" viewBox="0 0 81 127" version="1.1" xmlns="http://www.w3.org/2000/svg" xmlns:xlink="http://www.w3.org/1999/xlink">
    <!-- Generator: Sketch 52.4 (67378) - http://www.bohemiancoding.com/sketch -->
    <title>noun_1168325_cc copy</title>
    <desc>Created with Sketch.</desc>
    <g id="NEWWW" stroke="none" stroke-width="1" fill="none" fill-rule="evenodd">
        <g id="Landing-Page-Copy-4" transform="translate(-638.000000, -928.000000)" fill="#007AFF" fill-rule="nonzero">
            <g id="noun_1168325_cc-copy" transform="translate(638.000000, 928.000000)">
                <path d="M25.5020768,26.1137673 L25.5020768,20.1672514 C25.5020768,18.6882636 24.7938876,17.3209604 23.5945418,16.3763493 C26.5032748,10.1441758 32.8851133,5.81556537 40.2906665,5.81556537 C47.7223683,5.81556537 54.1222201,10.1735818 57.0171526,16.4412452 C55.8484587,17.3838283 55.1592998,18.7333141 55.1592998,20.1918771 L55.1592998,26.1382481 C55.1592998,27.7681767 56.0137755,29.2586081 57.4401776,30.1998875 C55.5118691,32.1987663 52.733007,33.371382 49.8476624,33.371382 C48.8833629,33.371382 47.9346072,33.2440529 47.0196993,32.9920021 C46.6710523,31.4965006 45.2594676,30.3866079 43.6006342,30.3866079 C41.6656432,30.3866079 40.0913566,31.8771843 40.0913566,33.7094777 C40.0913566,35.5429301 41.6656432,37.0345204 43.6006342,37.0345204 C44.3152153,37.0345204 45.0066985,36.8265061 45.5901012,36.4419113 C46.9729225,36.8590988 48.4012131,37.0704449 49.8421422,37.0704449 C52.2184622,37.0704449 54.4980326,36.5189751 56.514084,35.503529 C53.4692333,43.5303332 47.3465559,49.012728 40.2906665,49.012728 C31.8494864,49.012728 24.7475466,41.1685882 22.6478199,30.5094465 C24.3681024,29.6317592 25.5020768,27.9657613 25.5020768,26.1137673 Z M75.140551,77.1061082 C75.6510284,77.1061082 76.1498841,77.1523175 76.6355204,77.2363344 C76.5425478,65.575508 75.9713478,59.1392313 67.2999153,56.0898511 C58.3922745,52.7478602 53.0241273,49.4052899 53.0241273,49.4052899 L46.1714701,70.573212 L45.2581602,73.470058 L42.174232,65.003034 C49.255253,55.4213371 41.6036131,54.9754679 40.34645,54.9754679 C38.976122,54.9754679 31.4383734,55.4213371 38.5191038,65.0025994 L35.4357568,73.470058 L34.5221563,70.573212 L27.6693539,49.4052899 C27.6693539,49.4052899 22.3020783,52.7480051 13.3935658,56.0898511 C4.54374229,59.1664644 4.11999089,65.6892206 3.97167064,77.5476316 C4.83137608,77.2628432 5.75267583,77.1059633 6.71189094,77.1059633 L75.140551,77.1059633 L75.140551,77.1061082 Z M18.7705745,30.2259618 C19.1373802,30.3051984 19.519875,30.3483657 19.9137009,30.3483657 C20.2494189,30.3483657 20.5768566,30.3176561 20.8932538,30.2594237 C23.0964124,29.8544041 24.7533573,28.1093144 24.7533573,26.0183067 L24.7533573,20.0719357 C24.7533573,18.3904381 23.6812678,16.9341928 22.1162784,16.216862 C23.5521231,8.65562752 31.1787767,2.86729522 40.3497912,2.86729522 C49.527924,2.86729522 57.1641654,8.66895434 58.5872263,16.2416325 C57.0225275,16.9588185 55.9505832,18.4150637 55.9505832,20.0962716 L55.9505832,26.0426426 C55.9505832,27.7379016 57.0412673,29.2028383 58.6273207,29.9137954 C56.5560669,32.4686345 53.285322,33.9931073 49.8688718,33.9931073 C48.6621173,33.9931073 47.4778796,33.8075458 46.3471011,33.4419273 C46.2526758,32.0731755 45.0655327,31.0081884 43.6218435,31.0081884 C42.1116208,31.0081884 40.8824948,32.1770378 40.8824948,33.6138723 C40.8824948,35.0518656 42.1116208,36.2215841 43.6218435,36.2215841 C44.3006883,36.2215841 44.9510603,35.979963 45.4579059,35.5397432 C46.8844533,36.0160323 48.3666389,36.2575086 49.8633515,36.2575086 C54.495563,36.2575086 58.7156446,34.0546715 61.191329,30.3574917 C61.30769,30.3486555 61.4233246,30.3372118 61.5376517,30.3214224 C63.8552828,29.9998403 65.6298961,28.2065133 65.6298961,26.0426426 L65.6298961,20.0962716 C65.6298961,18.2028485 64.2710444,16.5945037 62.3789079,16.0059505 C62.2170776,15.9555404 62.0508892,15.9135319 61.8822312,15.8783317 C60.249401,6.89634185 51.2172641,0 40.349646,0 C29.4882744,0 20.4618031,6.8844636 18.8177871,15.8547201 C18.6529061,15.889196 18.4909305,15.9301904 18.3328772,15.9788623 C16.4365279,16.5653874 15.0740444,18.1757603 15.0740444,20.0719357 L15.0740444,26.0183067 C15.0741897,28.0568762 16.6494932,29.7660415 18.7705745,30.2259618 Z M72.8146396,125.779292 C72.8146396,126.452441 72.2370477,127 71.5223213,127 L9.48029355,127 C8.76571243,127 8.18812053,126.452586 8.18812053,125.779292 C8.18812053,125.10368 8.76571243,124.557425 9.48029355,124.557425 L71.5210139,124.557425 C72.235595,124.55757 72.8146396,125.104984 72.8146396,125.779292 Z M81,85.1963596 L81,85.3331045 L80.9764663,85.4724567 L75.2965706,116.616521 C75.2136216,119.822636 72.4276414,122.406881 69.0140965,122.406881 L11.9883731,122.406881 C8.57613561,122.406881 5.78884796,119.822636 5.70604429,116.616521 L0.0262937961,85.4724567 L0,85.3331045 L0,85.1963596 C0,81.9189749 2.81852062,79.251582 6.28639631,79.251582 L6.42846997,79.251582 L74.5728375,79.251582 L74.7150564,79.251582 C78.1797361,79.251582 80.9988378,81.917816 81,85.1963596 Z" id="Shape"></path>
            </g>
        </g>
    </g>
</svg>