<?xml version="1.0" encoding="UTF-8"?>
<svg width="85px" height="85px" viewBox="0 0 85 85" version="1.1" xmlns="http://www.w3.org/2000/svg" xmlns:xlink="http://www.w3.org/1999/xlink">
    <!-- Generator: Sketch 52.4 (67378) - http://www.bohemiancoding.com/sketch -->
    <title>Group</title>
    <desc>Created with Sketch.</desc>
    <g id="NEWWW" stroke="none" stroke-width="1" fill="none" fill-rule="evenodd">
        <g id="Landing-Page-Copy-4" transform="translate(-278.000000, -959.000000)" fill="#007AFF" fill-rule="nonzero">
            <g id="Group" transform="translate(278.000000, 959.000000)">
                <circle id="Oval" cx="38.8829787" cy="34.3617021" r="18.9893617"></circle>
                <path d="M42.5,0 C19.0280469,0 0,19.0280469 0,42.5 C0,65.9719531 19.0280469,85 42.5,85 C65.9719531,85 85,65.9719531 85,42.5 C85,19.0280469 65.9719531,0 42.5,0 Z M61.1269531,67.4807031 L56.2553906,62.6091406 L52.073125,58.426875 L54.1994531,56.3005469 L50.9814063,53.0825 C47.3954688,55.5010156 43.0764063,56.9128125 38.4266406,56.9128125 C26.0113281,56.9128125 15.9467969,46.8482812 15.9467969,34.4329687 C15.9441406,22.0176562 26.0086719,11.953125 38.4253125,11.953125 C50.840625,11.953125 60.9064844,22.0176562 60.9064844,34.4329687 C60.9064844,40.6871094 58.3498438,46.3396094 54.2286719,50.4142969 L57.1571875,53.3428125 L59.2821875,51.2178125 L63.4644531,55.4000781 L68.3360156,60.2716406 L61.1269531,67.4807031 Z" id="Shape"></path>
            </g>
        </g>
    </g>
</svg>