<?xml version="1.0" encoding="UTF-8"?>
<svg width="37px" height="31px" viewBox="0 0 37 31" version="1.1" xmlns="http://www.w3.org/2000/svg" xmlns:xlink="http://www.w3.org/1999/xlink">
    <!-- Generator: Sketch 52.4 (67378) - http://www.bohemiancoding.com/sketch -->
    <title>Twitter Copy 3</title>
    <desc>Created with Sketch.</desc>
    <g id="NEWWW" stroke="none" stroke-width="1" fill="none" fill-rule="evenodd">
        <g id="Landing-Page-Copy-4" transform="translate(-1029.000000, -6168.000000)" fill="#007AFF">
            <g id="Footer" transform="translate(129.000000, 6163.000000)">
                <g id="Group-5" transform="translate(667.000000, 0.000000)">
                    <path d="M268.979494,5.57309923 C267.511468,6.46900131 265.889328,7.12056647 264.155555,7.46919355 C262.774464,5.94953702 260.80063,5 258.615385,5 C254.426668,5 251.027288,8.50414918 251.027288,12.8257345 C251.027288,13.4395566 251.092489,14.0345071 251.222893,14.6076063 C244.914132,14.2808305 239.321603,11.1690109 235.575468,6.42827849 C234.921475,7.5883823 234.548047,8.93422191 234.548047,10.3674666 C234.548047,13.0809971 235.887646,15.4766909 237.925694,16.8801384 C236.682909,16.8423953 235.510266,16.4868155 234.484821,15.9047772 L234.484821,16.0001282 C234.484821,19.7933101 237.101781,22.9577713 240.57723,23.673897 C239.941019,23.8576463 239.269244,23.9500176 238.576723,23.9500176 C238.08771,23.9500176 237.610552,23.9023421 237.148212,23.8109641 C238.114383,26.9188107 240.916081,29.1824036 244.238405,29.2429913 C241.641204,31.3426997 238.366299,32.5941815 234.81083,32.5941815 C234.198329,32.5941815 233.592743,32.5584249 233,32.4869117 C236.358876,34.7038224 240.351,36 244.636531,36 C258.600566,36 266.234107,24.0771523 266.234107,13.7345487 C266.234107,13.3938675 266.228179,13.0541796 266.215337,12.7204511 C267.698182,11.616962 268.98641,10.2393387 270,8.67002019 C268.640643,9.29178815 267.176568,9.71292173 265.641364,9.90163724 C267.209169,8.93422191 268.412437,7.40066002 268.979494,5.57309923" id="Twitter-Copy-3"></path>
                </g>
            </g>
        </g>
    </g>
</svg>