<?xml version="1.0" encoding="UTF-8"?>
<svg width="37px" height="31px" viewBox="0 0 37 31" version="1.1" xmlns="http://www.w3.org/2000/svg" xmlns:xlink="http://www.w3.org/1999/xlink">
    <!-- Generator: Sketch 52.4 (67378) - http://www.bohemiancoding.com/sketch -->
    <title>Vimeo Copy 2</title>
    <desc>Created with Sketch.</desc>
    <g id="NEWWW" stroke="none" stroke-width="1" fill="none" fill-rule="evenodd">
        <g id="Landing-Page-Copy-4" transform="translate(-1184.000000, -6167.000000)" fill="#007AFF">
            <g id="Footer" transform="translate(129.000000, 6163.000000)">
                <g id="Group-5" transform="translate(667.000000, 0.000000)">
                    <path d="M419.597094,4.00669324 C414.454062,3.84431575 410.973556,6.63641635 409.145484,12.3800247 C410.083242,11.9998238 410.996773,11.8176442 411.88305,11.8176442 C413.762604,11.8176442 414.591344,12.8315133 414.36927,14.872123 C414.256214,16.1097563 413.431512,17.9048195 411.88305,20.2691941 C410.33358,22.6286181 409.171729,23.8068449 408.399517,23.8068449 C407.403212,23.8068449 406.493718,21.9860389 405.662959,18.336506 C405.386376,17.2632304 404.8857,14.5255857 404.175063,10.1215916 C403.506823,6.0433425 401.736287,4.13540709 398.864466,4.40570619 C397.646088,4.51758824 395.821043,5.58888358 393.392361,7.62949327 C391.619806,9.18396062 389.823026,10.7423884 388,12.2948755 L389.740253,14.4731101 C391.40177,13.3424083 392.365773,12.7790377 392.642356,12.7790377 C393.912216,12.7790377 395.100312,14.7117257 396.209672,18.5790821 C397.205977,22.1147528 398.198244,25.6613146 399.197577,29.2078764 C400.687492,33.0732526 402.512537,35 404.666655,35 C408.149179,35 412.410981,31.8336391 417.440957,25.4969569 C422.30135,19.4365144 424.820881,14.6612303 424.981379,11.1671441 C425.205472,6.50176186 423.406673,4.10966432 419.597094,4.00669324" id="Vimeo-Copy-2"></path>
                </g>
            </g>
        </g>
    </g>
</svg>