<?xml version="1.0" encoding="UTF-8" standalone="no"?>
<!-- Created with Inkscape (http://www.inkscape.org/) -->

<svg
   xmlns:dc="http://purl.org/dc/elements/1.1/"
   xmlns:cc="http://creativecommons.org/ns#"
   xmlns:rdf="http://www.w3.org/1999/02/22-rdf-syntax-ns#"
   xmlns:svg="http://www.w3.org/2000/svg"
   xmlns="http://www.w3.org/2000/svg"
   xmlns:sodipodi="http://sodipodi.sourceforge.net/DTD/sodipodi-0.dtd"
   xmlns:inkscape="http://www.inkscape.org/namespaces/inkscape"
   id="svg2"
   version="1.1"
   inkscape:version="0.91 r13725"
   xml:space="preserve"
   width="1402.575"
   height="1402.5"
   viewBox="0 0 1402.575 1402.5"
   sodipodi:docname="explore.svg"><metadata
     id="metadata8"><rdf:RDF><cc:Work
         rdf:about=""><dc:format>image/svg+xml</dc:format><dc:type
           rdf:resource="http://purl.org/dc/dcmitype/StillImage" /><dc:title></dc:title></cc:Work></rdf:RDF></metadata><defs
     id="defs6"><clipPath
       clipPathUnits="userSpaceOnUse"
       id="clipPath64"><path
         d="m 9578.77,4595.98 -3211.02,99.6 3127.02,0 0,4489.27 84,-4588.87"
         id="path66"
         inkscape:connector-curvature="0" /></clipPath></defs><sodipodi:namedview
     pagecolor="#ffffff"
     bordercolor="#666666"
     borderopacity="1"
     objecttolerance="10"
     gridtolerance="10"
     guidetolerance="10"
     inkscape:pageopacity="0"
     inkscape:pageshadow="2"
     inkscape:window-width="1366"
     inkscape:window-height="742"
     id="namedview4"
     showgrid="false"
     inkscape:zoom="0.33654189"
     inkscape:cx="701.28748"
     inkscape:cy="701.25"
     inkscape:window-x="0"
     inkscape:window-y="0"
     inkscape:window-maximized="1"
     inkscape:current-layer="g10" /><g
     id="g10"
     inkscape:groupmode="layer"
     inkscape:label="ink_ext_XXXXXX"
     transform="matrix(1.25,0,0,-1.25,0,1402.5)"><g
       id="g12"
       transform="matrix(0.12090067,0,0,0.12418822,-92.434728,-83.816369)"><path
         d="m 9066.9,910 -7104.81,0 c -228.12,0 -414.78,130.5 -414.78,290.1 l 0,116.01 c 0,71.44 37.5,137.01 99.31,187.7 l -221.3,0 c -228.12,0 -414.77,130.54 -414.77,290.08 0,159.55 186.65,290.08 414.77,290.08 l 635.1,0 c -130.8,48.95 -220.32,145.47 -220.32,255.95 0,159.54 186.64,290.08 414.77,290.08 l 7212.16,0 c 228.13,0 414.78,-130.54 414.78,-290.08 0,-159.54 -186.65,-290.08 -414.78,-290.08 l -853.95,3.92 c 88.43,-17.43 124.13,-63.79 146.4,-122.24 34.37,-90.16 31.24,-199.09 -39.04,-270.66 -39.1,-39.82 -96.93,-60.11 -133.89,-61.08 l 480.35,6.41 c 228.12,0 414.77,-130.54 414.77,-290.08 l 0,-116.01 C 9481.67,1040.5 9295.02,910 9066.9,910"
         style="fill:#f3e2e2;fill-opacity:1;fill-rule:nonzero;stroke:none"
         id="path18"
         inkscape:connector-curvature="0" /><path
         d="m 1893.45,3987.96 90.78,0 0,1845.87 779.2,0 0,-1845.87 90.78,0 0,1936.65 -960.76,0 0,-1936.65"
         style="fill:#41413f;fill-opacity:1;fill-rule:nonzero;stroke:none"
         id="path20"
         inkscape:connector-curvature="0" /><path
         d="m 1716.86,1521.76 1283.69,0 c 165.69,0 300,134.31 300,300 l 0,2055.33 c 0,165.68 -134.31,300 -300,300 l -1283.69,0 c -165.69,0 -300,-134.32 -300,-300 l 0,-2055.33 c 0,-165.69 134.31,-300 300,-300"
         style="fill:#babcbe;fill-opacity:1;fill-rule:nonzero;stroke:none"
         id="path22"
         inkscape:connector-curvature="0" /><path
         d="m 2793.69,1476.37 257.207,0 0,45.3906 -257.207,0 0,-45.3906 z"
         style="fill:#41413f;fill-opacity:1;fill-rule:nonzero;stroke:none"
         id="path24"
         inkscape:connector-curvature="0" /><path
         d="m 2680.22,4177.09 257.211,0 0,45.3789 -257.211,0 0,-45.3789 z"
         style="fill:#70706d;fill-opacity:1;fill-rule:nonzero;stroke:none"
         id="path26"
         inkscape:connector-curvature="0" /><path
         d="m 2249.01,5924.61 257.207,0 0,45.3906 -257.207,0 0,-45.3906 z"
         style="fill:#41413f;fill-opacity:1;fill-rule:nonzero;stroke:none"
         id="path28"
         inkscape:connector-curvature="0" /><path
         d="m 3010.56,1476.37 -27.74,-166.44 -60.52,0 -74.36,-0.2 -27.73,166.43 190.35,0.21"
         style="fill:#70706d;fill-opacity:1;fill-rule:nonzero;stroke:none"
         id="path30"
         inkscape:connector-curvature="0" /><path
         d="m 1704.33,1476.37 257.211,0 0,45.3906 -257.211,0 0,-45.3906 z"
         style="fill:#41413f;fill-opacity:1;fill-rule:nonzero;stroke:none"
         id="path32"
         inkscape:connector-curvature="0" /><path
         d="m 1802.67,4177.09 257.207,0 0,45.3789 -257.207,0 0,-45.3789 z"
         style="fill:#70706d;fill-opacity:1;fill-rule:nonzero;stroke:none"
         id="path34"
         inkscape:connector-curvature="0" /><path
         d="m 1744.67,1476.37 27.74,-166.44 121.04,0 27.74,166.44 -176.52,0"
         style="fill:#70706d;fill-opacity:1;fill-rule:nonzero;stroke:none"
         id="path36"
         inkscape:connector-curvature="0" /><path
         d="m 1855.63,5765.74 1036.41,0 0,158.871 -1036.41,0 0,-158.871 z"
         style="fill:#70706d;fill-opacity:1;fill-rule:nonzero;stroke:none"
         id="path38"
         inkscape:connector-curvature="0" /><path
         d="m 2634.83,4335.95 0,-158.86 -76.22,0 0,82.88 -369.56,0 0,-82.88 -76.21,0 0,158.86 521.99,0"
         style="fill:#70706d;fill-opacity:1;fill-rule:nonzero;stroke:none"
         id="path40"
         inkscape:connector-curvature="0" /><path
         d="m 1704.33,4109 491.86,0 c -411.49,-92.91 -718.81,-460.67 -718.81,-900.24 l 0,673.29 c 0,125.34 101.6,226.95 226.95,226.95"
         style="fill:#a7b0c4;fill-opacity:1;fill-rule:nonzero;stroke:none"
         id="path42"
         inkscape:connector-curvature="0" /><path
         d="m 2983.5,4010.65 c 3.61,21.46 22.22,37.83 44.71,37.83 22.48,0 41.1,-16.37 44.71,-37.83 l 0.68,0 0,-2337.59 c 0,-25.07 -20.32,-45.39 -45.39,-45.39 -25.07,0 -45.39,20.32 -45.39,45.39 l 0,2337.59 0.68,0"
         style="fill:#737e99;fill-opacity:1;fill-rule:nonzero;stroke:none"
         id="path44"
         inkscape:connector-curvature="0" /><path
         d="m 2764.12,4010.65 c 3.6,21.46 22.22,37.83 44.7,37.83 22.49,0 41.11,-16.37 44.72,-37.83 l 0.67,0 0,-2337.59 c 0,-25.07 -20.32,-45.39 -45.39,-45.39 -25.07,0 -45.39,20.32 -45.39,45.39 l 0,2337.59 0.69,0"
         style="fill:#737e99;fill-opacity:1;fill-rule:nonzero;stroke:none"
         id="path46"
         inkscape:connector-curvature="0" /><path
         d="m 2544.73,4010.65 c 3.6,21.46 22.22,37.83 44.71,37.83 22.48,0 41.1,-16.37 44.71,-37.83 l 0.68,0 0,-2337.59 c 0,-25.07 -20.32,-45.39 -45.39,-45.39 -25.07,0 -45.39,20.32 -45.39,45.39 l 0,2337.59 0.68,0"
         style="fill:#737e99;fill-opacity:1;fill-rule:nonzero;stroke:none"
         id="path48"
         inkscape:connector-curvature="0" /><path
         d="m 2325.34,4010.65 c 3.61,21.46 22.23,37.83 44.71,37.83 22.48,0 41.1,-16.37 44.71,-37.83 l 0.68,0 0,-2337.59 c 0,-25.07 -20.32,-45.39 -45.39,-45.39 -25.07,0 -45.39,20.32 -45.39,45.39 l 0,2337.59 0.68,0"
         style="fill:#737e99;fill-opacity:1;fill-rule:nonzero;stroke:none"
         id="path50"
         inkscape:connector-curvature="0" /><path
         d="m 2105.96,4010.65 c 3.61,21.46 22.22,37.83 44.7,37.83 22.49,0 41.11,-16.37 44.72,-37.83 l 0.67,0 0,-2337.59 c 0,-25.07 -20.32,-45.39 -45.39,-45.39 -25.06,0 -45.39,20.32 -45.39,45.39 l 0,2337.59 0.69,0"
         style="fill:#737e99;fill-opacity:1;fill-rule:nonzero;stroke:none"
         id="path52"
         inkscape:connector-curvature="0" /><path
         d="m 1886.57,4010.65 c 3.61,21.46 22.22,37.83 44.71,37.83 22.48,0 41.1,-16.37 44.71,-37.83 l 0.68,0 0,-2337.59 c 0,-25.07 -20.32,-45.39 -45.39,-45.39 -25.07,0 -45.39,20.32 -45.39,45.39 l 0,2337.59 0.68,0"
         style="fill:#737e99;fill-opacity:1;fill-rule:nonzero;stroke:none"
         id="path54"
         inkscape:connector-curvature="0" /><path
         d="m 1667.18,4010.65 c 3.61,21.46 22.23,37.83 44.71,37.83 22.49,0 41.1,-16.37 44.71,-37.83 l 0.68,0 0,-2337.59 c 0,-25.07 -20.32,-45.39 -45.39,-45.39 -25.06,0 -45.39,20.32 -45.39,45.39 l 0,2337.59 0.68,0"
         style="fill:#737e99;fill-opacity:1;fill-rule:nonzero;stroke:none"
         id="path56"
         inkscape:connector-curvature="0" /><path
         d="m 5060.55,6410 770,1580 240,-220 -330,-1570 -520,-300 -160,510"
         style="fill:#5d66d3;fill-opacity:1;fill-rule:nonzero;stroke:none"
         id="path128"
         inkscape:connector-curvature="0" /><path
         d="m 3748.24,7692.28 -260.47,-160.52 -662.67,-1067.07 39.28,-314.27 510.67,98.21 451.76,1119.56 -78.57,324.09"
         style="fill:#5d66d3;fill-opacity:1;fill-rule:nonzero;stroke:none"
         id="path130"
         inkscape:connector-curvature="0" /><path
         d="M 4580.55,7600 4822.24,7414.66 5640.55,6370 5496.33,5954.01 5022.25,5925.84 4580.55,7600"
         style="fill:#5d66d3;fill-opacity:1;fill-rule:nonzero;stroke:none"
         id="path132"
         inkscape:connector-curvature="0" /><path
         d="m 4160.36,7662.4 c -73.81,3.21 -147.62,6.41 -221.42,9.62 -3.98,58.77 -3.25,117.86 2.17,176.52 -0.66,-7.12 -118.77,55.15 -129.22,69.28 -30.08,40.66 -33.58,108.96 -46.1,157.34 -26.65,103.05 -51.71,219.09 2.75,310.55 56.4,94.72 178.43,127.14 288.63,130.02 138.36,3.62 292.85,-36.72 364,-155.44 64.26,-107.23 -16.81,-265.39 -39.96,-378.79 -11.42,-55.91 -28.83,-119.72 -80.78,-143.33 -27.58,-12.53 -61.04,-11.17 -85.66,-28.82 -43.43,-31.13 -33.65,-97.72 -54.41,-146.95"
         style="fill:#eacdb0;fill-opacity:1;fill-rule:nonzero;stroke:none"
         id="path134"
         inkscape:connector-curvature="0" /><path
         d="m 4264.99,9019.02 c -11.49,-0.51 -22.65,-2.29 -33.56,-4.95 l 97.38,-2.73 c -21.02,5.14 -42.19,8.63 -63.82,7.68"
         style="fill:#3a3029;fill-opacity:1;fill-rule:nonzero;stroke:none"
         id="path136"
         inkscape:connector-curvature="0" /><path
         d="m 4629.68,8702.44 -63.34,106.53 -237.48,202.35 -0.05,0.02 -97.38,2.73 c -80.66,-19.62 -147.89,-90.47 -231.76,-103.87 -131.85,-21.07 -252.93,39.33 -332.54,-115.83 -14.63,-28.52 -18.68,-61.34 -31.58,-90.67 -16.66,-37.89 -46.99,-67.78 -70.69,-101.71 -104.26,-149.18 -70.55,-375.6 55.82,-502.03 61.27,-61.3 86.32,-116.76 170.73,-136.42 -38.66,78.58 12.39,391.59 118.22,426.71 28.03,9.29 112.22,-25 143.27,-29.53 68.78,-10.06 135.64,-21.09 200.34,-47.88 84.72,-35.08 175.84,-61.11 267.49,-72.08 l 0.14,-0.06 c 2.29,-0.06 10.83,-1.34 23.13,-2.24 4.48,-0.41 8.96,-0.99 13.44,-1.33 8.35,-0.62 17.31,-1.04 25.3,0.89 33.86,1.9 74.42,10.73 102.81,39.12 55.02,55.02 36.68,119.2 155.88,128.37 97.71,7.52 -59.4,197.4 -211.75,296.93"
         style="fill:#292949;fill-opacity:1;fill-rule:nonzero;stroke:none"
         id="path138"
         inkscape:connector-curvature="0" /><path
         d="m 5053.16,5540.74 20.26,-1752.1 -188.9,-2303.81 -253.88,0 -301.61,2129.21 -347.41,2084.48 1071.54,-157.78"
         style="fill:#2f3789;fill-opacity:1;fill-rule:nonzero;stroke:none"
         id="path140"
         inkscape:connector-curvature="0" /><path
         d="m 4632.1,1515.05 0,-137.27 274.55,-137.26 137.27,137.26 -137.27,137.27 -274.55,0"
         style="fill:#292949;fill-opacity:1;fill-rule:nonzero;stroke:none"
         id="path142"
         inkscape:connector-curvature="0" /><path
         d="m 4313.3,5429.48 -240.66,-1735.61 -709.58,-2250.06 -251.05,37.77 198.54,2150.39 -33.4,2112.96 1036.15,-315.45"
         style="fill:#2f3789;fill-opacity:1;fill-rule:nonzero;stroke:none"
         id="path144"
         inkscape:connector-curvature="0" /><path
         d="m 3117.95,1511.25 -20.43,-135.74 251.06,-176.61 156.17,115.33 -115.32,156.17 -271.48,40.85"
         style="fill:#292949;fill-opacity:1;fill-rule:nonzero;stroke:none"
         id="path146"
         inkscape:connector-curvature="0" /><path
         d="m 3170.19,5205.62 c -3.51,-159.86 1.52,-375.3 62.93,-383.18 11.5,-1.47 22.54,4.21 32.6,9.7 106.19,57.98 181.33,139.59 286,195.6 109.72,58.72 235.23,89.91 358.31,111.75 184.06,33.63 372.19,54.49 559.72,57.77 147.42,2.56 295.54,-9.99 442.34,-22.21 122.13,-10.17 235.78,-46.37 360.2,-37.74 127.52,8.84 253.13,47.9 362.14,114.9 4,2.45 8.22,5.24 9.88,9.63 1.8,4.79 0.05,10.11 -1.71,14.93 -26.04,71.37 -44.77,142.06 -92.07,201.17 -52.82,66.02 -90.36,149.89 -128.54,225.02 -79.57,156.6 -154.51,320.72 -210.12,487.55 -84.04,226.77 -180.04,447.64 -261.28,675.16 -56.31,157.69 -107.67,318.2 -184.07,467.7 -59.82,117.06 -166.45,288.07 -294.88,339.61 -43.47,17.44 -91.43,19.02 -138.25,20.36 -142.04,4.08 -284.07,8.16 -426.11,12.25 -51.78,1.48 -105.63,2.57 -152.84,-18.76 -70.73,-31.97 -110.72,-106.26 -145.68,-175.57 -156.73,-310.77 -256.66,-645.84 -312.64,-991.38 -29.23,-180.42 -56.26,-361.2 -77.3,-542.65 -23.48,-202.49 -39.61,-405.89 -43.01,-609.62 -0.38,-22.64 -3.96,-86.05 -5.62,-161.99"
         style="fill:#5d66d3;fill-opacity:1;fill-rule:nonzero;stroke:none"
         id="path148"
         inkscape:connector-curvature="0" /><path
         d="m 3813.24,5127.72 c 381.38,3.32 863.76,28.61 1245.14,31.93 -13.81,182.26 -50.74,434.37 -64.55,616.64 -8.85,116.85 -17.77,234.1 -42.43,348.77 -39.79,184.96 -119.61,359.06 -198.88,531.5 -146.45,318.64 -292.91,637.27 -439.36,955.9 -5.85,12.74 -11.94,25.78 -20.67,36.69 -0.1,4.23 -1.3,8.75 -4.11,13.66 -39.28,68.75 19.64,78.57 -9.82,88.39 -29.46,9.82 -176.77,-9.82 -324.08,49.1 -75.19,30.08 -68.75,0 -68.75,-49.1 0,-49.11 -9.82,-49.11 -9.82,-49.11 l 1.49,-0.77 c -26.96,-99.81 73.81,-272.8 111.2,-365.44 54.49,-135 119.53,-269.01 129.3,-416.05 5.34,-80.48 -6.14,-161.02 -17.59,-240.9 -69.73,-486.46 -217.34,-1064.74 -287.07,-1551.21"
         style="fill:#dfecf2;fill-opacity:1;fill-rule:nonzero;stroke:none"
         id="path150"
         inkscape:connector-curvature="0" /><path
         d="m 3710.52,9325.59 76.42,61.06 -73.36,73.35 -82.52,0 -18.34,-36.68 -91.69,0 -91.7,-128.37 55.02,-82.53 96.66,33.68 129.51,79.49"
         style="fill:#f7f7f7;fill-opacity:1;fill-rule:nonzero;stroke:none"
         id="path152"
         inkscape:connector-curvature="0" /><path
         d="m 3562.79,8175.23 c 0,0 -252.66,101.91 -188.47,404.5 64.18,302.59 110.03,687.71 320.92,742.73 210.9,55.02 1011.2,-240 962.8,-641.86 6.62,1.58 -155.88,128.37 -458.47,73.35 -366.35,-66.61 -668.38,-249.67 -636.78,-578.72"
         style="fill:#ffffff;fill-opacity:1;fill-rule:nonzero;stroke:none"
         id="path154"
         inkscape:connector-curvature="0" /><path
         d="m 3040.79,4708.18 c -371.06,760.58 -55.3,1677.95 705.28,2049.01 760.58,371.07 1677.95,55.3 2049.01,-705.28 371.06,-760.58 55.3,-1677.95 -705.28,-2049.01 -760.58,-371.06 -1677.95,-55.29 -2049.01,705.28"
         style="fill:#292949;fill-opacity:1;fill-rule:nonzero;stroke:none"
         id="path156"
         inkscape:connector-curvature="0" /><path
         d="m 4565,6906.96 c 241.6,-147.2 445.31,-362.96 578.56,-636.1 371.06,-760.58 55.3,-1677.95 -705.28,-2049 -264.15,-128.88 -547.21,-174.83 -819.73,-148.15 431.17,-262.69 983.01,-306.99 1470.45,-69.19 760.59,371.07 1076.35,1288.44 705.29,2049.02 -242.19,496.42 -717.13,803.28 -1229.29,853.42"
         style="fill:#151526;fill-opacity:1;fill-rule:nonzero;stroke:none"
         id="path158"
         inkscape:connector-curvature="0" /><path
         d="m 4093.77,6877.91 c 27.49,5.97 55.03,11.19 82.62,15.6 l -82.62,-15.6"
         style="fill:#95b93f;fill-opacity:1;fill-rule:nonzero;stroke:none"
         id="path160"
         inkscape:connector-curvature="0" /><path
         d="m 4272.72,6905.76 c -38.86,-13 -77.14,-31.46 -116.11,-58.77 11.26,20.38 17.44,35.56 19.78,46.52 -27.59,-4.41 -55.13,-9.63 -82.62,-15.6 -1.51,-1.43 -2.99,-2.87 -4.41,-4.31 -27.59,-27.89 -31.88,-31.48 -16.17,-49.85 -15.48,-1.1 -30.78,-1.12 -45.57,0.32 l -159.43,-77.78 c 155.49,-62.43 -43.88,-150.58 -115.29,-185.67 -13.06,-6.43 -28.89,18.29 -24.79,28.79 1.95,5.03 89.76,43.8 67.01,32.7 67.25,32.81 56.58,33.26 23.92,100.2 -41.43,-79.27 -62.45,-30.46 -135.85,-66.27 -68.83,-33.59 -100.75,-53.85 -147.89,-110.44 27.83,-7.16 55.67,-14.32 83.5,-21.47 -27.5,-6.47 -123.7,-14.19 -141.18,-34.36 -8.14,-9.39 2.57,-38.06 -10.13,-44.25 -51.29,-25.02 -177.16,-121.15 -205.85,-62.35 -0.13,0.27 -1.17,0.06 -2.89,-0.5 -100.19,-115.95 -181.57,-245.56 -242.52,-383.81 61.02,43.31 132.61,73.45 146.35,80.16 6.12,2.99 101.38,-85.29 105.87,-93.47 25.45,-46.38 2.21,-80.96 0.23,-137.81 -3.61,-103.52 29.61,-220.6 79.53,-310.52 1.81,-3.25 80.77,-25.86 90.32,-45.43 39.98,-81.95 49.2,-79.08 134.95,-112 l -49.03,100.51 c 76.49,-71.62 133.59,-85.69 205.9,-157 82.06,-80.91 181.38,60.44 258.97,18.62 34.17,-18.41 65.77,13.1 97.39,-5.73 l 85.8,-51.07 c 51.72,-30.78 80.22,2.54 133.19,28.38 50.88,24.82 39.45,-198.39 46.68,-213.21 29.73,-60.94 180.63,-159.11 192.02,-183.78 33.76,-73.12 129.09,-39.18 199.89,-59.81 56.83,-16.78 78.49,-132.27 99.3,-178.02 48.48,-106.61 152.61,-149.4 218.36,-240.33 24.51,-33.9 29.77,-80.79 55.33,-112.27 26.26,-32.33 68.63,-39.76 87.83,-80.3 29.66,-62.6 210.41,11.11 244.31,27.66 -0.2,0.02 -160.11,3.92 -156.24,-4.01 -28.83,59.09 3.58,69.81 -13.99,105.85 -20.86,42.82 -76.93,59.1 -82.21,131.52 -5.71,78.3 -7.71,74.86 63.27,109.49 -16.11,29.41 -35.16,56.81 -57.13,82.2 15.2,129.78 116.33,296.87 142.38,342.59 35.36,62.15 -42.08,145.5 -44.57,208.83 -2.18,55.66 38.31,127.81 13.75,185.63 -18.73,44.11 -61.87,36.06 -92.77,19.67 -30.83,-16.34 -59.52,34.57 -83.22,22.99 -65.9,-32.15 -139.77,-54.28 -217.48,-39.86 -12.87,2.39 -64.48,81.32 -90.79,94.28 -37.71,18.57 -86.09,-69.93 -134.64,-43.36 -18.35,10.05 -73.39,57.69 -90.94,49.14 -23.88,-11.65 -167.94,-50.26 -183.39,-88.78 2.38,5.93 -54.06,-3.14 -61.04,-6.54 3,1.46 -125.6,-171.64 -148.18,-125.36 -29.28,60.01 -37.85,151.84 -109.02,117.12 -114.41,-55.82 -31.58,21.42 -57.15,73.82 -32.8,67.23 -101.79,-72.49 -160.13,-101.03 1.55,0.75 -119.53,78.24 -87.29,93.97 23.15,11.3 3.75,60.23 11.14,88.68 19.4,74.87 93.88,118.06 153.04,134.61 23.96,6.7 148.81,-46.89 158.34,-65.84 -2.28,4.52 20.12,41.2 21.23,50.09 3.95,31.77 -10,37.84 -17.85,63.89 -26.34,87.44 -30.81,105.1 9.8,185.87 29.83,59.35 75.93,133.27 90.36,198.27 11,49.6 28.55,81.14 59.96,121.6 -3.21,-4.13 52.17,-7.33 61.27,-2.89 37.37,18.23 30.98,54.2 37.61,92.53 l -64.87,-31.65 c 45.92,91.74 -100.81,56.1 45.99,127.72 72.11,35.18 79.26,37.44 98.36,110.2 -70.13,-34.22 -53.31,-25.44 -88.15,45.99 -5.8,11.89 -46.91,45.84 -56.75,18.01 -26.93,-76.11 -54.43,-15.03 -93.57,7.75 -50.62,29.45 -60.26,-30.99 -59.55,-63.46 0.89,-40.27 -98.5,-152.41 -77.27,-195.22 12.43,-25.07 -29.17,-44.11 -42.09,-15.7 -19.4,42.66 -184.5,11.91 -194.92,27.17 -13.75,20.15 32.89,115.31 98.26,147.21 30.04,14.65 -1.64,42.27 7.62,46.78 62.28,30.39 126.27,85.57 135.83,152.41 -8.5,-4.15 -88.19,-43.74 -88.67,-42.75 -13.93,28.55 -34.63,40.03 -1.9,55.99 76.82,37.48 128.82,-11.33 213.16,29.82 -19.46,-36.61 -38.92,-73.23 -58.37,-109.84 42.33,20.66 140.03,-18.72 161.93,18.97 40.43,69.59 -18.03,86.65 27.88,119.32 8.1,-3.01 17.92,-4.9 31.95,-3.29 18.31,2.09 79.46,19.49 95.97,9.88 19.9,-11.58 98.86,-99.15 81.68,-118.5 -27.9,-31.41 -76.08,-192.05 15.61,-181.54 70.85,8.11 73.21,42.62 110.57,102.49 34.73,55.67 53.94,50.81 119.92,58.37 0.6,0.07 57.52,30.45 82.96,33.36 55.67,6.38 37.58,34.67 43.42,35.34 23.21,2.65 63.85,16.24 83.4,39.23 -231.07,97.07 -485.09,137.44 -739.22,113.29"
         style="fill:#8cabef;fill-opacity:1;fill-rule:nonzero;stroke:none"
         id="path162"
         inkscape:connector-curvature="0" /><path
         d="m 4168.89,5668.15 c -4.75,-13.86 -9.5,-27.73 -14.25,-41.59 86.76,42.33 153.23,40.11 230.19,77.66 -91.13,55.73 -119.44,11.01 -215.94,-36.07"
         style="fill:#95b93f;fill-opacity:1;fill-rule:nonzero;stroke:none"
         id="path164"
         inkscape:connector-curvature="0" /><path
         d="m 4489.38,5737.76 c -70.66,-31.87 -68.74,-44.02 -88.14,-112.49 36.69,17.91 73.44,35.71 110.16,53.57 31.84,15.49 0.27,68.97 -22.02,58.92"
         style="fill:#95b93f;fill-opacity:1;fill-rule:nonzero;stroke:none"
         id="path166"
         inkscape:connector-curvature="0" /><path
         d="m 4623.57,5713.37 c -47.63,97.63 -99.31,-48.45 0,0"
         style="fill:#95b93f;fill-opacity:1;fill-rule:nonzero;stroke:none"
         id="path168"
         inkscape:connector-curvature="0" /><path
         d="m 5117.28,4326.08 c 26.26,-32.33 68.63,-39.76 87.83,-80.3 29.66,-62.6 210.41,11.11 244.31,27.66 -0.2,0.02 -160.11,3.92 -156.24,-4.01 -28.83,59.09 3.58,69.81 -13.99,105.85 -20.86,42.82 -76.93,59.1 -82.21,131.52 -5.71,78.3 -7.71,74.86 63.27,109.49 -16.11,29.41 -35.16,56.81 -57.13,82.2 15.2,129.78 116.33,296.87 142.38,342.59 35.36,62.15 -42.08,145.5 -44.57,208.83 -2.18,55.66 38.31,127.81 13.75,185.63 -5.5,12.95 -13.13,21.31 -21.91,26.36 -29.39,-323.78 -161.45,-633.2 -379.12,-879.13 48.79,-47.92 106.34,-86.38 148.3,-144.42 24.51,-33.9 29.77,-80.79 55.33,-112.27"
         style="fill:#7d9cd1;fill-opacity:1;fill-rule:nonzero;stroke:none"
         id="path170"
         inkscape:connector-curvature="0" /><path
         d="m 5308.73,6735.57 c 167.14,118.17 398.44,78.45 516.6,-88.7 118.17,-167.15 78.45,-398.44 -88.7,-516.6 -167.15,-118.17 -398.44,-78.45 -516.61,88.69 -118.15,167.16 -78.44,398.45 88.71,516.61 z m -286.25,307.03 c -354.74,-250.77 -755.84,-1471.25 -743.42,-1488.83 16.69,-23.61 1296.8,-46.54 1651.54,204.23 354.73,250.77 439.01,741.63 188.24,1096.36 -250.77,354.74 -741.63,439.01 -1096.36,188.24"
         style="fill:#d67086;fill-opacity:1;fill-rule:nonzero;stroke:none"
         id="path172"
         inkscape:connector-curvature="0" /><path
         d="m 2830.55,6470 c 0,0 507.27,101.17 530,80 22.73,-21.17 784.61,-723.93 784.61,-723.93 l -130.29,-167.24 -873.24,333.68 -260.66,162.12 -50.42,315.37"
         style="fill:#5d66d3;fill-opacity:1;fill-rule:nonzero;stroke:none"
         id="path174"
         inkscape:connector-curvature="0" /><path
         d="m 4130.83,5807.68 c 6.17,0.52 188.16,-50.13 188.16,-50.13 l 97.93,-200.46 -115.36,-50.66 -262.92,182.91 92.19,118.34"
         style="fill:#eacdb0;fill-opacity:1;fill-rule:nonzero;stroke:none"
         id="path176"
         inkscape:connector-curvature="0" /><path
         d="m 5308.73,6735.57 c 167.14,118.17 398.44,78.45 516.6,-88.7 118.17,-167.15 78.45,-398.44 -88.7,-516.6 -167.15,-118.17 -398.44,-78.45 -516.61,88.69 -118.15,167.16 -78.44,398.45 88.71,516.61"
         style="fill:#ffffff;fill-opacity:1;fill-rule:nonzero;stroke:none"
         id="path178"
         inkscape:connector-curvature="0" /><path
         d="m 5862.56,7959.28 56.48,220.72 283.22,120 2.19,-87.68 -105.41,-62.32 -58.49,-120 0,-233.88 -177.99,163.16"
         style="fill:#eacdb0;fill-opacity:1;fill-rule:nonzero;stroke:none"
         id="path180"
         inkscape:connector-curvature="0" /></g></g></svg>