<?xml version="1.0" encoding="UTF-8" standalone="no"?>
<!-- Created with Inkscape (http://www.inkscape.org/) -->

<svg
   xmlns:dc="http://purl.org/dc/elements/1.1/"
   xmlns:cc="http://creativecommons.org/ns#"
   xmlns:rdf="http://www.w3.org/1999/02/22-rdf-syntax-ns#"
   xmlns:svg="http://www.w3.org/2000/svg"
   xmlns="http://www.w3.org/2000/svg"
   xmlns:sodipodi="http://sodipodi.sourceforge.net/DTD/sodipodi-0.dtd"
   xmlns:inkscape="http://www.inkscape.org/namespaces/inkscape"
   id="svg2"
   version="1.1"
   inkscape:version="0.91 r13725"
   xml:space="preserve"
   width="1402.575"
   height="1402.5"
   viewBox="0 0 1402.575 1402.5"
   sodipodi:docname="explore-1.svg"><metadata
     id="metadata8"><rdf:RDF><cc:Work
         rdf:about=""><dc:format>image/svg+xml</dc:format><dc:type
           rdf:resource="http://purl.org/dc/dcmitype/StillImage" /><dc:title></dc:title></cc:Work></rdf:RDF></metadata><defs
     id="defs6"><clipPath
       clipPathUnits="userSpaceOnUse"
       id="clipPath64"><path
         d="m 9578.77,4595.98 -3211.02,99.6 3127.02,0 0,4489.27 84,-4588.87"
         id="path66"
         inkscape:connector-curvature="0" /></clipPath></defs><sodipodi:namedview
     pagecolor="#ffffff"
     bordercolor="#666666"
     borderopacity="1"
     objecttolerance="10"
     gridtolerance="10"
     guidetolerance="10"
     inkscape:pageopacity="0"
     inkscape:pageshadow="2"
     inkscape:window-width="1366"
     inkscape:window-height="742"
     id="namedview4"
     showgrid="false"
     inkscape:zoom="0.33654189"
     inkscape:cx="701.28748"
     inkscape:cy="701.25"
     inkscape:window-x="0"
     inkscape:window-y="0"
     inkscape:window-maximized="1"
     inkscape:current-layer="g12" /><g
     id="g10"
     inkscape:groupmode="layer"
     inkscape:label="ink_ext_XXXXXX"
     transform="matrix(1.25,0,0,-1.25,0,1402.5)"><g
       id="g12"
       transform="scale(0.1,0.1)"><path
         d="m 6989.132,54.237308 -6152.91777,0 c -197.55679,0 -359.20834,166.675752 -359.20834,370.518272 l 0,148.16899 c 0,91.2438 32.4758,174.99038 86.00458,239.7321 l -191.65053,0 c -197.55681,0 -359.199707,166.72683 -359.199707,370.49273 0,203.7787 161.642897,370.4927 359.199707,370.4927 l 550.01021,0 c -113.27561,62.5194 -190.80186,185.7956 -190.80186,326.9016 0,203.7659 161.63427,370.4927 359.19971,370.4927 l 6245.8853,0 c 197.5652,0 359.2079,-166.7268 359.2079,-370.4927 0,-203.7659 -161.6427,-370.4927 -359.2079,-370.4927 l -739.5393,5.0066 c 76.5823,-22.2617 107.4993,-81.4731 126.7855,-156.126 29.7652,-115.1531 27.0546,-254.2795 -33.8094,-345.6893 -33.8614,-50.85845 -83.9435,-76.77301 -115.9516,-78.01191 l 415.9935,8.18691 c 197.5569,0 359.1995,-166.72683 359.1995,-370.49273 l 0,-148.16899 c 0,-203.84252 -161.6426,-370.518272 -359.1995,-370.518272"
         style="fill:#1c3651;fill-opacity:0.39007126;fill-rule:nonzero;stroke:none"
         id="path18"
         inkscape:connector-curvature="0" /><path
         d="m 1117.445,3985.4349 113.6457,0 0,2357.5614 975.4648,0 0,-2357.5614 113.6456,0 0,2473.5064 -1202.7561,0 0,-2473.5064"
         style="fill:#41413f;fill-opacity:1;fill-rule:nonzero;stroke:none"
         id="path20"
         inkscape:connector-curvature="0" /><path
         d="m 896.37553,835.58256 1607.02567,0 c 207.424,0 375.564,171.54194 375.564,383.16264 l 0,2625.0856 c 0,211.6079 -168.14,383.1626 -375.564,383.1626 l -1607.02567,0 c -207.42399,0 -375.56397,-171.5547 -375.56397,-383.1626 l 0,-2625.0856 c 0,-211.6207 168.13998,-383.16264 375.56397,-383.16264"
         style="fill:#babcbe;fill-opacity:1;fill-rule:nonzero;stroke:none"
         id="path22"
         inkscape:connector-curvature="0" /><path
         d="m 2244.4374,777.61006 321.9922,0 0,57.97327 -321.9922,0 0,-57.97327 z"
         style="fill:#41413f;fill-opacity:1;fill-rule:nonzero;stroke:none"
         id="path24"
         inkscape:connector-curvature="0" /><path
         d="m 2102.3865,4226.9934 321.9973,0 0,57.9583 -321.9973,0 0,-57.9583 z"
         style="fill:#70706d;fill-opacity:1;fill-rule:nonzero;stroke:none"
         id="path26"
         inkscape:connector-curvature="0" /><path
         d="m 1562.5634,6458.9413 321.9923,0 0,57.9733 -321.9923,0 0,-57.9733 z"
         style="fill:#41413f;fill-opacity:1;fill-rule:nonzero;stroke:none"
         id="path28"
         inkscape:connector-curvature="0" /><path
         d="m 2515.9326,777.61006 -34.7272,-212.57864 -75.7638,0 -93.0898,-0.25544 -34.7146,212.56586 238.2954,0.26822"
         style="fill:#70706d;fill-opacity:1;fill-rule:nonzero;stroke:none"
         id="path30"
         inkscape:connector-curvature="0" /><path
         d="m 880.68947,777.61006 321.99733,0 0,57.97327 -321.99733,0 0,-57.97327 z"
         style="fill:#41413f;fill-opacity:1;fill-rule:nonzero;stroke:none"
         id="path32"
         inkscape:connector-curvature="0" /><path
         d="m 1003.7993,4226.9934 321.9923,0 0,57.9583 -321.9923,0 0,-57.9583 z"
         style="fill:#70706d;fill-opacity:1;fill-rule:nonzero;stroke:none"
         id="path34"
         inkscape:connector-curvature="0" /><path
         d="m 931.19031,777.61006 34.72714,-212.57864 151.52755,0 34.7271,212.57864 -220.98179,0"
         style="fill:#70706d;fill-opacity:1;fill-rule:nonzero;stroke:none"
         id="path36"
         inkscape:connector-curvature="0" /><path
         d="m 1070.0989,6256.0312 1297.4608,0 0,202.9114 -1297.4608,0 0,-202.9114 z"
         style="fill:#70706d;fill-opacity:1;fill-rule:nonzero;stroke:none"
         id="path38"
         inkscape:connector-curvature="0" /><path
         d="m 2045.5637,4429.8908 0,-202.8974 -95.4183,0 0,105.8551 -462.6447,0 0,-105.8551 -95.4058,0 0,202.8974 653.4688,0"
         style="fill:#70706d;fill-opacity:1;fill-rule:nonzero;stroke:none"
         id="path40"
         inkscape:connector-curvature="0" /><path
         d="m 880.68947,4140.0283 615.74963,0 C 981.30306,4021.3628 596.57533,3551.6565 596.57533,2990.2338 l 0,859.9319 c 0,160.0854 127.19099,289.8626 284.11414,289.8626"
         style="fill:#a7b0c4;fill-opacity:1;fill-rule:nonzero;stroke:none"
         id="path42"
         inkscape:connector-curvature="0" /><path
         d="m 2482.0567,4014.4148 c 4.5193,27.4089 27.8168,48.3168 55.9715,48.3168 28.1423,0 51.4523,-20.9079 55.9716,-48.3168 l 0.8513,0 0,-2985.5905 c 0,-32.01967 -25.4382,-57.97255 -56.8229,-57.97255 -31.3846,0 -56.8228,25.95288 -56.8228,57.97255 l 0,2985.5905 0.8513,0"
         style="fill:#737e99;fill-opacity:1;fill-rule:nonzero;stroke:none"
         id="path44"
         inkscape:connector-curvature="0" /><path
         d="m 2207.4193,4014.4148 c 4.5067,27.4089 27.8167,48.3168 55.959,48.3168 28.1548,0 51.4648,-20.9079 55.9841,-48.3168 l 0.8387,0 0,-2985.5905 c 0,-32.01967 -25.4382,-57.97255 -56.8228,-57.97255 -31.3846,0 -56.8228,25.95288 -56.8228,57.97255 l 0,2985.5905 0.8638,0"
         style="fill:#737e99;fill-opacity:1;fill-rule:nonzero;stroke:none"
         id="path46"
         inkscape:connector-curvature="0" /><path
         d="m 1932.7693,4014.4148 c 4.5068,27.4089 27.8168,48.3168 55.9716,48.3168 28.1422,0 51.4523,-20.9079 55.9715,-48.3168 l 0.8513,0 0,-2985.5905 c 0,-32.01967 -25.4382,-57.97255 -56.8228,-57.97255 -31.3846,0 -56.8228,25.95288 -56.8228,57.97255 l 0,2985.5905 0.8512,0"
         style="fill:#737e99;fill-opacity:1;fill-rule:nonzero;stroke:none"
         id="path48"
         inkscape:connector-curvature="0" /><path
         d="m 1658.1194,4014.4148 c 4.5193,27.4089 27.8293,48.3168 55.9716,48.3168 28.1422,0 51.4522,-20.9079 55.9715,-48.3168 l 0.8513,0 0,-2985.5905 c 0,-32.01967 -25.4382,-57.97255 -56.8228,-57.97255 -31.3847,0 -56.8229,25.95288 -56.8229,57.97255 l 0,2985.5905 0.8513,0"
         style="fill:#737e99;fill-opacity:1;fill-rule:nonzero;stroke:none"
         id="path50"
         inkscape:connector-curvature="0" /><path
         d="m 1383.482,4014.4148 c 4.5193,27.4089 27.8168,48.3168 55.959,48.3168 28.1548,0 51.4648,-20.9079 55.9841,-48.3168 l 0.8388,0 0,-2985.5905 c 0,-32.01967 -25.4382,-57.97255 -56.8229,-57.97255 -31.3721,0 -56.8228,25.95288 -56.8228,57.97255 l 0,2985.5905 0.8638,0"
         style="fill:#737e99;fill-opacity:1;fill-rule:nonzero;stroke:none"
         id="path52"
         inkscape:connector-curvature="0" /><path
         d="m 1108.8321,4014.4148 c 4.5192,27.4089 27.8167,48.3168 55.9715,48.3168 28.1423,0 51.4523,-20.9079 55.9716,-48.3168 l 0.8512,0 0,-2985.5905 c 0,-32.01967 -25.4382,-57.97255 -56.8228,-57.97255 -31.3846,0 -56.8228,25.95288 -56.8228,57.97255 l 0,2985.5905 0.8513,0"
         style="fill:#737e99;fill-opacity:1;fill-rule:nonzero;stroke:none"
         id="path54"
         inkscape:connector-curvature="0" /><path
         d="m 834.18213,4014.4148 c 4.51929,27.4089 27.82929,48.3168 55.97155,48.3168 28.15478,0 51.45227,-20.9079 55.97155,-48.3168 l 0.85128,0 0,-2985.5905 c 0,-32.01967 -25.4382,-57.97255 -56.82283,-57.97255 -31.37211,0 -56.82283,25.95288 -56.82283,57.97255 l 0,2985.5905 0.85128,0"
         style="fill:#737e99;fill-opacity:1;fill-rule:nonzero;stroke:none"
         id="path56"
         inkscape:connector-curvature="0" /><path
         d="m 6513.4354,8116.4901 4.8699,2528.3629 1179.9093,0 0,-21.904 -1157.6509,0 0,-2483.1881 -27.1283,-23.2708"
         style="fill:#272745;fill-opacity:1;fill-rule:nonzero;stroke:none"
         id="path84"
         inkscape:connector-curvature="0" /><path
         d="m 6540.5637,8139.7609 0,2483.1881 1157.6509,0 0,-139.957 1575.1278,0 -2732.7787,-2343.2311"
         style="fill:#f2f2f2;fill-opacity:1;fill-rule:nonzero;stroke:none"
         id="path86"
         inkscape:connector-curvature="0" /><path
         d="m 5082.2738,7078.8857 963.9476,2017.9899 300.4511,-280.9859 -413.1203,-2005.2178 -650.9776,-383.1627 -200.3008,651.3765"
         style="fill:#5d66d3;fill-opacity:1;fill-rule:nonzero;stroke:none"
         id="path128"
         inkscape:connector-curvature="0" /><path
         d="m 3439.4193,8716.625 -326.0771,-205.0175 -829.5833,-1362.8712 49.1738,-401.3885 639.2976,125.4347 565.5492,1429.9119 -98.3602,413.9306"
         style="fill:#5d66d3;fill-opacity:1;fill-rule:nonzero;stroke:none"
         id="path130"
         inkscape:connector-curvature="0" /><path
         d="m 4481.3715,8598.7642 302.5668,-236.7179 1024.4259,-1334.2489 -180.5461,-531.3061 -593.4913,-35.979 -552.9553,2138.2519"
         style="fill:#5d66d3;fill-opacity:1;fill-rule:nonzero;stroke:none"
         id="path132"
         inkscape:connector-curvature="0" /><path
         d="m 3955.3441,8678.462 c -92.4013,4.0998 -184.8026,8.1869 -277.1913,12.2868 -4.9825,75.0615 -4.0686,150.5318 2.7166,225.4529 -0.8262,-9.0938 -148.6858,70.438 -161.7679,88.485 -37.6566,51.9313 -42.0382,139.1647 -57.7117,200.956 -33.3626,131.6164 -64.7347,279.8237 3.4427,396.6372 70.606,120.9772 223.3729,162.3843 361.3301,166.0627 173.2101,4.6235 366.613,-46.8991 455.6843,-198.5293 80.4458,-136.9551 -21.0441,-338.9585 -50.0252,-483.794 -14.2964,-71.4087 -36.0917,-152.9074 -101.1268,-183.0623 -34.5269,-16.0034 -76.4148,-14.2664 -107.2361,-36.8092 -54.3691,-39.7595 -42.1257,-124.8088 -68.1147,-187.6858"
         style="fill:#eacdb0;fill-opacity:1;fill-rule:nonzero;stroke:none"
         id="path134"
         inkscape:connector-curvature="0" /><path
         d="m 4086.3283,10411.149 c -14.3841,-0.651 -28.3551,-2.925 -42.0131,-6.322 l 121.908,-3.487 c -26.3145,6.565 -52.8168,11.022 -79.8949,9.809"
         style="fill:#3a3029;fill-opacity:1;fill-rule:nonzero;stroke:none"
         id="path136"
         inkscape:connector-curvature="0" /><path
         d="m 4542.8763,10006.81 -79.294,136.061 -297.2965,258.444 -0.063,0.02 -121.908,3.487 c -100.9767,-25.059 -185.1406,-115.549 -290.1357,-132.664 -165.0604,-26.911 -316.638,50.233 -416.3002,-147.939 -18.315,-36.426 -23.3851,-78.344 -39.5343,-115.804 -20.8563,-48.3939 -58.8259,-86.5697 -88.4954,-129.9054 -130.521,-190.534 -88.3201,-479.7196 69.8799,-641.1971 76.7027,-78.2929 108.0623,-149.1269 213.7335,-174.2368 -48.3977,100.363 15.5108,500.1422 147.9972,544.9977 35.0902,11.8653 140.486,-31.9302 179.3568,-37.7159 86.1043,-12.8488 169.805,-26.9364 250.8017,-61.1528 106.0592,-44.8045 220.1305,-78.0502 334.8653,-92.0612 l 0.1753,-0.077 c 2.8668,-0.077 13.5578,-1.7115 28.956,-2.861 5.6084,-0.5236 11.2168,-1.2644 16.8252,-1.6987 10.4532,-0.7918 21.6701,-1.3283 31.6726,1.1367 42.3886,2.4267 93.1649,13.7045 128.7058,49.9644 68.8784,70.2721 45.9189,152.2433 195.143,163.9553 122.3212,9.6047 -74.3617,252.1211 -265.0856,379.2414"
         style="fill:#292949;fill-opacity:1;fill-rule:nonzero;stroke:none"
         id="path138"
         inkscape:connector-curvature="0" /><path
         d="m 5073.0224,5968.6592 25.3631,-2237.7976 -236.4801,-2942.44636 -317.8273,0 -377.5795,2719.44576 -434.9156,2662.3162 1341.4394,-201.518"
         style="fill:#2f3789;fill-opacity:1;fill-rule:nonzero;stroke:none"
         id="path140"
         inkscape:connector-curvature="0" /><path
         d="m 4545.9059,827.01249 0,-175.32245 343.7036,-175.30968 171.8456,175.30968 -171.8456,175.32245 -343.7036,0"
         style="fill:#292949;fill-opacity:1;fill-rule:nonzero;stroke:none"
         id="path142"
         inkscape:connector-curvature="0" /><path
         d="M 4146.8066,5826.5569 3845.5292,3609.8206 2957.2202,736.02414 2642.9358,784.26431 2891.484,3530.7613 2849.6712,6229.4525 4146.8066,5826.5569"
         style="fill:#2f3789;fill-opacity:1;fill-rule:nonzero;stroke:none"
         id="path144"
         inkscape:connector-curvature="0" /><path
         d="m 2650.3719,822.1591 -25.5759,-173.36832 314.297,-225.56785 195.5061,147.30049 -144.3668,199.4617 -339.8604,52.17398"
         style="fill:#292949;fill-opacity:1;fill-rule:nonzero;stroke:none"
         id="path146"
         inkscape:connector-curvature="0" /><path
         d="m 2715.7701,5540.641 c -4.3941,-204.1746 1.9029,-479.3365 78.7808,-489.4009 14.3967,-1.8775 28.2174,5.3771 40.8113,12.3889 132.9372,74.0526 227.0034,178.2856 358.0377,249.8221 137.3562,74.9977 294.4797,114.8338 448.5611,142.7281 230.421,42.9525 465.9371,69.5951 700.7022,73.7843 184.5521,3.2697 369.9806,-12.7593 553.7565,-28.3668 152.8921,-12.9892 295.1683,-59.2242 450.9272,-48.2019 159.6397,11.2906 316.8883,61.1783 453.3558,146.7513 5.0075,3.1292 10.2904,6.6926 12.3685,12.2996 2.2534,6.1178 0.063,12.9125 -2.1407,19.0687 -32.5989,91.1544 -56.0466,181.4403 -115.2606,256.9361 -66.1243,84.3213 -113.1198,191.4408 -160.9166,287.3975 -99.6121,200.0109 -193.428,409.6264 -263.045,622.7031 -105.208,289.6327 -225.3885,571.7298 -327.0912,862.3203 -70.4933,201.4031 -134.7899,406.4079 -230.4335,597.3506 -74.8875,149.5101 -208.3754,367.9255 -369.1544,433.7529 -54.4192,22.2745 -114.4593,24.2925 -173.0724,26.0039 -177.817,5.2111 -355.6215,10.4221 -533.4385,15.6459 -64.8223,1.8902 -132.2361,3.2824 -191.3373,-23.9605 -88.5455,-40.8323 -138.6082,-135.7162 -182.3739,-224.2395 -196.2071,-396.9182 -321.3075,-824.8726 -391.3877,-1266.1993 -36.5925,-230.434 -70.4308,-461.3278 -96.7703,-693.0773 -29.3942,-258.6221 -49.587,-518.4063 -53.8434,-778.6121 -0.4757,-28.916 -4.9574,-109.9038 -7.0356,-206.895"
         style="fill:#5d66d3;fill-opacity:1;fill-rule:nonzero;stroke:none"
         id="path148"
         inkscape:connector-curvature="0" /><path
         d="m 3520.7915,5441.1464 c 477.442,4.2403 1081.3238,36.541 1558.7657,40.7813 -17.2884,232.7841 -63.5203,554.7812 -80.8088,787.578 -11.0791,149.2419 -22.2459,298.9946 -53.1173,445.4521 -49.8123,236.2326 -149.7373,458.5946 -248.9738,678.8365 -183.3378,406.9698 -366.6882,813.9269 -550.026,1220.8839 -7.3235,16.2716 -14.9474,32.9264 -25.8763,46.8608 -0.1252,5.4026 -1.6275,11.1756 -5.1453,17.4467 -49.1738,87.8081 24.5869,100.3503 -12.2934,112.8925 -36.8804,12.5421 -221.2948,-12.5422 -405.7093,62.7109 -94.1288,38.4184 -86.0667,0 -86.0667,-62.7109 0,-62.7238 -12.2935,-62.7238 -12.2935,-62.7238 l 1.8653,-0.9834 c -33.7507,-127.4782 92.4013,-348.4226 139.2091,-466.7432 68.2149,-172.4232 149.6372,-343.5819 161.868,-531.3827 6.6851,-102.7898 -7.6865,-205.6562 -22.0205,-307.6796 -87.2936,-621.311 -272.0836,-1359.8953 -359.3772,-1981.2191"
         style="fill:#dfecf2;fill-opacity:1;fill-rule:nonzero;stroke:none"
         id="path150"
         inkscape:connector-curvature="0" /><path
         d="m 3392.1984,10802.703 95.6687,77.986 -91.8379,93.684 -103.3052,0 -22.9594,-46.848 -114.7849,0 -114.7974,-163.956 68.8784,-105.408 121.0067,43.017 162.131,101.525"
         style="fill:#f7f7f7;fill-opacity:1;fill-rule:nonzero;stroke:none"
         id="path152"
         inkscape:connector-curvature="0" /><path
         d="m 3207.2582,9333.453 c 0,0 -316.3,130.1603 -235.9418,516.631 80.3456,386.471 137.7443,878.349 401.7533,948.621 264.0215,70.272 1265.9009,-306.53 1205.3099,-819.789 8.2875,2.018 -195.143,163.955 -573.9493,93.683 -458.6262,-85.0746 -836.7315,-318.8804 -797.1721,-739.146"
         style="fill:#ffffff;fill-opacity:1;fill-rule:nonzero;stroke:none"
         id="path154"
         inkscape:connector-curvature="0" /><path
         d="m 2553.7769,4905.3062 c -464.5226,971.4195 -69.229,2143.0925 882.9258,2617.0136 952.1549,473.9339 2100.5919,70.6297 2565.1145,-900.7898 464.5225,-971.4195 69.2289,-2143.0925 -882.9259,-2617.0136 -952.1548,-473.9211 -2100.5919,-70.6169 -2565.1144,900.7898"
         style="fill:#292949;fill-opacity:1;fill-rule:nonzero;stroke:none"
         id="path156"
         inkscape:connector-curvature="0" /><path
         d="m 4461.9047,7713.6074 c 302.4542,-188.0051 557.4747,-463.5757 724.2877,-812.4325 464.5225,-971.4195 69.2289,-2143.0925 -882.9259,-2617.0009 -330.6841,-164.6066 -685.0412,-223.2944 -1026.2035,-189.2184 539.7731,-335.51 1230.6105,-392.0904 1840.8268,-88.3701 952.1673,473.9339 1347.4609,1645.6069 882.9384,2617.0264 -303.1928,634.032 -897.7606,1025.9562 -1538.9235,1089.9955"
         style="fill:#151526;fill-opacity:1;fill-rule:nonzero;stroke:none"
         id="path158"
         inkscape:connector-curvature="0" /><path
         d="m 3871.9814,7676.5045 c 34.4142,7.6249 68.8909,14.2919 103.4303,19.9244 l -103.4303,-19.9244"
         style="fill:#95b93f;fill-opacity:1;fill-rule:nonzero;stroke:none"
         id="path160"
         inkscape:connector-curvature="0" /><path
         d="m 4096.0053,7712.0747 c -48.6481,-16.6037 -96.57,-40.1809 -145.3558,-75.0615 14.0962,26.0295 21.8328,45.4175 24.7622,59.4157 -34.5394,-5.6325 -69.0161,-12.2995 -103.4303,-19.9244 -1.8904,-1.8264 -3.7431,-3.6656 -5.5208,-5.5048 -34.5394,-35.6213 -39.9099,-40.2065 -20.2429,-63.6689 -19.3791,-1.4049 -38.5329,-1.4304 -57.0482,0.4088 l -199.5872,-99.3413 c 194.6548,-79.7362 -54.9325,-192.3221 -144.3292,-237.1394 -16.3496,-8.2125 -36.1668,23.3601 -31.0341,36.7708 2.4411,6.4244 112.3687,55.9418 83.8884,41.7648 84.189,41.9052 70.8314,42.4799 29.945,127.9763 -51.8654,-101.2444 -78.1799,-38.9038 -170.0679,-84.6406 -86.1669,-42.9015 -126.1269,-68.7777 -185.1405,-141.055 34.8398,-9.1448 69.6922,-18.2896 104.532,-27.4217 -34.4267,-8.2635 -154.8576,-18.1235 -176.7404,-43.8848 -10.1903,-11.993 3.2173,-48.6106 -12.6816,-56.5165 -64.2089,-31.9558 -221.783,-154.7339 -257.6994,-79.634 -0.1628,0.3448 -1.4647,0.077 -3.618,-0.6386 -125.4258,-148.0924 -227.3038,-313.6314 -303.6059,-490.2055 76.3897,55.3159 166.0118,93.811 183.2126,102.381 7.6615,3.8189 126.9156,-108.9331 132.5366,-119.3807 31.8603,-59.2369 2.7666,-103.4028 0.2879,-176.0121 -4.5193,-132.2167 37.0682,-281.7523 99.562,-396.5989 2.2659,-4.1509 101.1143,-33.0286 113.0698,-58.0236 50.0502,-104.6672 61.5925,-101.0017 168.9412,-143.0474 l -61.3797,128.3723 c 95.7563,-91.4737 167.2386,-109.444 257.7621,-200.5218 102.7292,-103.339 227.066,77.1945 324.1993,23.7816 42.7768,-23.5134 82.3362,16.7315 121.9206,-7.3184 l 107.4113,-65.227 c 64.7472,-39.3125 100.4258,3.2441 166.7379,36.2472 63.6956,31.7003 49.3866,-253.3855 58.4377,-272.3137 37.2184,-77.8331 226.1271,-203.2167 240.386,-234.7255 42.2635,-93.3895 161.6052,-50.041 250.2383,-76.3898 71.1443,-21.4316 98.26,-168.9364 124.3117,-227.3687 60.6911,-136.1633 191.0494,-190.815 273.3605,-306.9516 30.6835,-43.2974 37.2684,-103.1857 69.2665,-143.3923 32.8743,-41.2921 85.9165,-50.7818 109.9526,-102.5598 37.1307,-79.9533 263.408,14.1898 305.8468,35.3276 -0.2504,0.026 -200.4385,5.0066 -195.5938,-5.1216 -36.0916,75.4702 4.4818,89.1619 -17.5138,135.1925 -26.1142,54.6901 -96.3071,75.4831 -102.917,167.9785 -7.1482,100.0055 -9.652,95.6119 79.2064,139.8416 -20.1677,37.5627 -44.0161,72.5582 -71.5199,104.9866 19.0286,165.7561 145.6312,379.165 178.2427,437.5589 44.2665,79.3786 -52.6791,185.8339 -55.7963,266.7196 -2.7291,71.0894 47.9595,163.24 17.2134,237.0882 -23.4477,56.3377 -77.4538,46.0562 -116.1369,25.1227 -38.5955,-20.8696 -74.5119,44.1531 -104.1815,29.363 -82.4989,-41.0622 -174.9752,-69.3268 -272.2588,-50.9095 -16.1117,3.0525 -80.7212,103.8626 -113.6582,120.4153 -47.2084,23.7177 -107.7743,-89.3153 -168.5531,-55.3798 -22.972,12.8359 -91.8755,73.6822 -113.846,62.762 -29.8949,-14.8795 -210.2407,-64.1925 -229.5822,-113.3906 2.9795,7.5739 -67.6766,-4.0104 -76.4148,-8.3529 3.7557,1.8647 -157.2361,-219.2201 -185.5035,-160.1109 -36.6551,76.6453 -47.3837,193.9314 -136.48,149.5867 -143.2276,-71.2938 -39.5343,27.3578 -71.5449,94.2835 -41.0617,85.8668 -127.4289,-92.5848 -200.4635,-129.0364 1.9404,0.9579 -149.6372,99.9288 -109.2766,120.0193 28.981,14.4325 4.6945,76.9263 13.9459,113.2629 24.2865,95.6246 117.5265,150.7873 191.5877,171.9251 29.995,8.5573 186.2923,-59.8883 198.2227,-84.0914 -2.8543,5.7729 25.1878,52.621 26.5774,63.9753 4.9449,40.577 -12.5188,48.3296 -22.3461,81.6009 -32.9745,111.6792 -38.5704,134.2347 12.2684,237.3948 37.3436,75.8024 95.0553,170.2136 113.1199,253.2322 13.7707,63.3496 35.7412,103.6327 75.0627,155.3086 -4.0185,-5.2749 65.3106,-9.3619 76.7027,-3.6911 46.7828,23.2835 38.7833,69.2247 47.0832,118.1801 l -81.2094,-40.4237 c 57.4863,117.1712 -126.202,71.6514 57.5739,163.1251 90.2731,44.9322 99.224,47.8187 123.1349,140.7485 -87.7943,-43.7061 -66.7377,-32.4922 -110.3532,58.7388 -7.2609,15.186 -58.7257,58.5472 -71.0442,23.0025 -33.7131,-97.2083 -68.1398,-19.1964 -117.1384,9.8984 -63.3701,37.6138 -75.4383,-39.5807 -74.5494,-81.0517 1.1142,-51.4332 -123.3102,-194.6594 -96.7328,-249.3367 15.5609,-32.0196 -36.5173,-56.3377 -52.6916,-20.0522 -24.2865,54.4858 -230.9718,15.2116 -244.0164,34.7018 -17.2134,25.7358 41.1743,147.2749 123.0097,188.0179 37.6065,18.7111 -2.0531,53.9876 9.5393,59.7478 77.9671,38.8144 158.0749,109.2908 170.0429,194.6594 -10.641,-5.3004 -110.4033,-55.8651 -111.0042,-54.6007 -17.4387,36.4644 -43.3526,51.1267 -2.3786,71.511 96.1694,47.8698 161.2672,-14.4708 266.8507,38.0863 -24.3616,-46.7586 -48.7231,-93.53 -73.0722,-140.2886 52.9921,26.3872 175.3007,-23.9093 202.7169,24.2287 50.6135,88.8809 -22.5714,110.6701 34.9024,152.3965 10.1402,-3.8444 22.4337,-6.2583 39.9976,-4.202 22.9219,2.6694 99.4743,24.8928 120.1429,12.6188 24.9124,-14.79 123.7608,-126.6352 102.2535,-151.3492 -34.9274,-40.1171 -95.243,-245.288 19.5419,-231.8645 88.6957,10.3582 91.6501,54.4346 138.4203,130.9011 43.4778,71.1022 67.5264,64.895 150.1255,74.5507 0.7511,0.089 72.0081,38.891 103.8559,42.6077 69.6922,8.1486 47.0457,44.2808 54.3567,45.1366 29.0561,3.3846 79.9325,20.7418 104.4067,50.1049 -289.2718,123.9786 -607.2744,175.5395 -925.4146,144.6949"
         style="fill:#8cabef;fill-opacity:1;fill-rule:nonzero;stroke:none"
         id="path162"
         inkscape:connector-curvature="0" /><path
         d="m 3966.0226,6131.3884 c -5.9464,-17.7022 -11.8929,-35.417 -17.8393,-53.1192 108.6131,54.0643 191.8256,51.2289 288.1702,99.1881 -114.0838,71.1788 -149.5245,14.0621 -270.3309,-46.0689"
         style="fill:#95b93f;fill-opacity:1;fill-rule:nonzero;stroke:none"
         id="path164"
         inkscape:connector-curvature="0" /><path
         d="m 4367.2376,6220.2949 c -88.4578,-40.7047 -86.0542,-56.2228 -110.3407,-143.6733 45.9315,22.8749 91.9381,45.6092 137.9071,68.4201 39.8598,19.784 0.338,88.0891 -27.5664,75.2532"
         style="fill:#95b93f;fill-opacity:1;fill-rule:nonzero;stroke:none"
         id="path166"
         inkscape:connector-curvature="0" /><path
         d="m 4535.2273,6189.1437 c -59.627,124.6939 -124.3241,-61.8807 0,0"
         style="fill:#95b93f;fill-opacity:1;fill-rule:nonzero;stroke:none"
         id="path168"
         inkscape:connector-curvature="0" /><path
         d="m 5153.293,4417.2847 c 32.8743,-41.2921 85.9165,-50.7818 109.9526,-102.5598 37.1307,-79.9533 263.408,14.1898 305.8468,35.3276 -0.2504,0.026 -200.4385,5.0066 -195.5938,-5.1216 -36.0916,75.4702 4.4818,89.1619 -17.5138,135.1925 -26.1142,54.6901 -96.3071,75.4831 -102.917,167.9785 -7.1482,100.0055 -9.652,95.6119 79.2064,139.8416 -20.1677,37.5627 -44.0161,72.5582 -71.5199,104.9866 19.0286,165.7561 145.6312,379.165 178.2427,437.5589 44.2665,79.3786 -52.6791,185.8339 -55.7963,266.7196 -2.7291,71.0894 47.9595,163.24 17.2134,237.0882 -6.8854,16.5399 -16.4372,27.2173 -27.4287,33.6672 -36.7928,-413.5346 -202.116,-808.7286 -474.6127,-1122.8325 61.0792,-61.2039 133.1249,-110.3253 185.6538,-184.4545 30.6835,-43.2974 37.2684,-103.1857 69.2665,-143.3923"
         style="fill:#7d9cd1;fill-opacity:1;fill-rule:nonzero;stroke:none"
         id="path170"
         inkscape:connector-curvature="0" /><path
         d="m 5392.9654,7494.7066 c 209.2392,150.9277 498.799,100.197 646.7211,-113.2884 147.9347,-213.4855 98.21,-508.8911 -111.0417,-659.8061 -209.2517,-150.9278 -498.799,-100.197 -646.7337,113.2756 -147.9096,213.4983 -98.1974,508.9039 111.0543,659.8189 z m -358.3506,392.1414 c -444.0919,-320.2857 -946.2209,-1879.0935 -930.6726,-1901.5468 20.8939,-30.1549 1623.4379,-59.4413 2067.5297,260.8444 444.0794,320.2856 549.5878,947.2163 235.6539,1400.2806 -313.9339,453.0771 -928.4317,560.7074 -1372.511,240.4218"
         style="fill:#d67086;fill-opacity:1;fill-rule:nonzero;stroke:none"
         id="path172"
         inkscape:connector-curvature="0" /><path
         d="m 2290.5817,7155.5182 c 0,0 635.0411,129.2153 663.4963,102.1767 28.4552,-27.0385 982.2375,-924.6097 982.2375,-924.6097 l -163.1074,-213.6004 -1093.1916,426.179 -326.3151,207.0611 -63.1197,402.7933"
         style="fill:#5d66d3;fill-opacity:1;fill-rule:nonzero;stroke:none"
         id="path174"
         inkscape:connector-curvature="0" /><path
         d="m 3918.376,6309.5973 c 7.7241,0.6642 235.5538,-64.0265 235.5538,-64.0265 l 122.5966,-256.0292 -144.4169,-64.7034 -329.1443,233.6142 115.4108,151.1449"
         style="fill:#eacdb0;fill-opacity:1;fill-rule:nonzero;stroke:none"
         id="path176"
         inkscape:connector-curvature="0" /><path
         d="m 5392.9654,7494.7066 c 209.2392,150.9277 498.799,100.197 646.7211,-113.2884 147.9347,-213.4855 98.21,-508.8911 -111.0417,-659.8061 -209.2517,-150.9278 -498.799,-100.197 -646.7337,113.2756 -147.9096,213.4983 -98.1974,508.9039 111.0543,659.8189"
         style="fill:#ffffff;fill-opacity:1;fill-rule:nonzero;stroke:none"
         id="path178"
         inkscape:connector-curvature="0" /><path
         d="m 6086.294,9057.6398 70.7062,281.9055 354.5574,153.265 2.7416,-111.9856 -131.9606,-79.5957 -73.2225,-153.265 0,-298.7136 -222.8221,208.3894"
         style="fill:#eacdb0;fill-opacity:1;fill-rule:nonzero;stroke:none"
         id="path180"
         inkscape:connector-curvature="0" /><g
         id="g4343"
         transform="matrix(0.72808644,0,0,0.7705251,2090.4164,3503.3071)"><path
           inkscape:connector-curvature="0"
           id="path58"
           style="fill:#292949;fill-opacity:1;fill-rule:nonzero;stroke:none"
           d="m 6042.06,4487.12 3636.08,0 0,4852.26 -3636.08,0 0,-4852.26 z" /><path
           inkscape:connector-curvature="0"
           id="path70"
           style="fill:#ffffff;fill-opacity:1;fill-rule:nonzero;stroke:none"
           d="m 6225.43,4695.58 3269.34,0 0,4489.27 -3269.34,0 0,-4489.27 z" /><g
           id="g4323"><path
             d="m 6651.53,7430.11 2456.87,0 0,66.082 -2456.87,0 0,-66.082 z"
             style="fill:#cdced0;fill-opacity:1;fill-rule:nonzero;stroke:none"
             id="path72"
             inkscape:connector-curvature="0" /><path
             d="m 6651.53,6990.88 2456.87,0 0,66.0898 -2456.87,0 0,-66.0898 z"
             style="fill:#cdced0;fill-opacity:1;fill-rule:nonzero;stroke:none"
             id="path74"
             inkscape:connector-curvature="0" /><path
             d="m 6651.53,6503.66 2456.87,0 0,66.082 -2456.87,0 0,-66.082 z"
             style="fill:#cdced0;fill-opacity:1;fill-rule:nonzero;stroke:none"
             id="path76"
             inkscape:connector-curvature="0" /><path
             d="m 6651.53,6016.43 2456.87,0 0,66.082 -2456.87,0 0,-66.082 z"
             style="fill:#cdced0;fill-opacity:1;fill-rule:nonzero;stroke:none"
             id="path78"
             inkscape:connector-curvature="0" /><path
             d="m 6649.37,5071.18 903.129,0 0,23.3203 -903.129,0 0,-23.3203 z"
             style="fill:#cdced0;fill-opacity:1;fill-rule:nonzero;stroke:none"
             id="path80"
             inkscape:connector-curvature="0" /><path
             d="m 8812.35,5225.32 c -31.47,-11.33 -65.55,-10.35 -95.86,1.08 37.73,30.68 61.17,77.89 62.19,128.48 -1.02,50.78 -24.05,97.72 -62.25,128.48 23.78,9.12 50.04,11.86 75.83,6.71 64.67,-12.96 109.55,-70.09 110.86,-135.19 -1.17,-57.44 -35.99,-109.84 -90.77,-129.56 z m -60.34,129.56 c -0.95,-46.62 -24.07,-89.92 -62.04,-115.11 -11.05,7.15 -21.19,15.88 -29.93,26.2 -37.53,44.31 -42.77,109.42 -13.15,159.27 10.84,18.25 25.73,33.33 42.99,44.6 37.47,-25.05 61.17,-67.92 62.13,-114.96 z m -90.77,-129.56 c -53.82,-19.36 -115.34,-3.01 -152.31,40.65 -37.53,44.31 -42.78,109.42 -13.15,159.27 29.49,49.61 88.66,76.18 145.36,64.83 7.69,-1.54 15.09,-3.73 22.18,-6.46 -9.45,-7.42 -18.15,-15.9 -25.84,-25.44 -42.63,-52.86 -48.29,-128.61 -13.61,-187.12 10.44,-17.61 23.93,-32.67 39.5,-44.86 l -2.13,-0.87 z m 161,283.85 c -43.66,16.28 -92.01,12.15 -132.31,-8.52 -6.04,3.17 -12.27,6.08 -18.81,8.52 -65.28,24.35 -141.13,3.11 -184.75,-51 -42.63,-52.86 -48.29,-128.61 -13.62,-187.12 35.2,-59.37 104.94,-90.03 172.51,-77.62 16.1,2.96 31.16,8.33 44.98,15.62 32.09,-16.37 69.43,-22.36 106.13,-15.62 77.65,14.28 131.85,83.89 133.42,161.45 -1.38,68.53 -42.76,130.13 -107.55,154.29"
             style="fill:#cdced0;fill-opacity:1;fill-rule:nonzero;stroke:none"
             id="path82"
             inkscape:connector-curvature="0" /><path
             d="m 8570.05,9184.85 -31.3,0 20.41,17.15 -1409,0 0,6.56 1419.89,0 0,-23.71"
             style="fill:#242440;fill-opacity:1;fill-rule:nonzero;stroke:none"
             id="path88"
             inkscape:connector-curvature="0" /><path
             d="m 8570.05,9075.27 -161.68,0 130.38,109.58 31.3,0 0,-109.58"
             style="fill:#e0e0e0;fill-opacity:1;fill-rule:nonzero;stroke:none"
             id="path90"
             inkscape:connector-curvature="0" /><path
             d="m 8538.75,9184.85 -1388.59,0 0,17.15 1409,0 -20.41,-17.15"
             style="fill:#22223d;fill-opacity:1;fill-rule:nonzero;stroke:none"
             id="path92"
             inkscape:connector-curvature="0" /><path
             d="m 8408.37,9075.27 -1258.21,0 0,109.58 1388.59,0 -130.38,-109.58"
             style="fill:#d5d5d5;fill-opacity:1;fill-rule:nonzero;stroke:none"
             id="path94"
             inkscape:connector-curvature="0" /><path
             d="m 8047.15,9605.91 -374.09,0 c -38.25,0 -69.52,31.28 -69.52,69.52 0,38.24 31.27,69.53 69.52,69.53 l 374.09,0 c 38.24,0 69.52,-31.29 69.52,-69.53 0,-38.24 -31.28,-69.52 -69.52,-69.52 z m 231.86,5.83 -22.03,0 0,14.85 c 0,139.94 -130.29,253.38 -291.02,253.38 l -211.71,0 c -160.73,0 -291.03,-113.44 -291.03,-253.38 l 0,-14.85 -22.03,0 c -160.73,0 -291.03,-113.44 -291.03,-253.39 l 0,-283.08 1419.89,0 0,283.08 c 0,139.95 -130.3,253.39 -291.04,253.39"
             style="fill:#babcbe;fill-opacity:1;fill-rule:nonzero;stroke:none"
             id="path96"
             inkscape:connector-curvature="0" /><path
             d="m 6786.33,8573.35 0,31.02 212.67,0 0,-31.02 -86.84,0 0,-292.43 -39,0 0,292.43 -86.83,0"
             style="fill:#000000;fill-opacity:1;fill-rule:nonzero;stroke:none"
             id="path98"
             inkscape:connector-curvature="0" /><path
             d="m 7088.06,8445.3 57.15,0 c 21.57,0 37.29,6.13 47.19,18.39 9.89,12.26 14.85,27.47 14.85,45.64 0,18.16 -4.96,33.38 -14.85,45.63 -9.9,12.26 -25.62,18.39 -47.19,18.39 l -57.15,0 0,-128.05 z m -39,159.07 97.93,0 c 19.2,0 35.67,-2.81 49.4,-8.42 13.74,-5.62 24,-13.29 30.8,-23.04 12.69,-18.32 19.05,-39.59 19.05,-63.81 0,-46.38 -18.61,-75.92 -55.83,-88.61 7.97,-5.91 15.06,-15.67 21.27,-29.24 l 47.85,-110.33 -41.65,0 -44.75,105.01 c -4.73,10.63 -10.63,17.87 -17.72,21.71 -7.09,3.83 -16.99,6.05 -29.69,6.65 l -37.66,0 0,-133.37 -39,0 0,323.45"
             style="fill:#000000;fill-opacity:1;fill-rule:nonzero;stroke:none"
             id="path100"
             inkscape:connector-curvature="0" /><path
             d="m 7424.8,8569.8 -51.84,-160.39 103.24,0 -51.4,160.39 z m -26.14,34.57 51.85,0 105.89,-323.45 -38.55,0 -31.46,97.48 -123.18,0 -31.45,-97.48 -38.56,0 105.46,323.45"
             style="fill:#000000;fill-opacity:1;fill-rule:nonzero;stroke:none"
             id="path102"
             inkscape:connector-curvature="0" /><path
             d="m 7703.5,8280.92 -51.84,0 -98.81,323.45 39.88,0 84.63,-286.67 85.07,286.67 39.44,0 -98.37,-323.45"
             style="fill:#000000;fill-opacity:1;fill-rule:nonzero;stroke:none"
             id="path104"
             inkscape:connector-curvature="0" /><path
             d="m 7859.91,8604.37 171.92,0 0,-31.02 -132.92,0 0,-112.54 123.61,0 0,-31.02 -123.61,0 0,-117.86 141.77,0 0,-31.01 -180.77,0 0,323.45"
             style="fill:#000000;fill-opacity:1;fill-rule:nonzero;stroke:none"
             id="path106"
             inkscape:connector-curvature="0" /><path
             d="m 8108.04,8280.92 0,323.45 38.99,0 0,-292.44 120.51,0 0,-31.01 -159.5,0"
             style="fill:#000000;fill-opacity:1;fill-rule:nonzero;stroke:none"
             id="path108"
             inkscape:connector-curvature="0" /><path
             d="m 7638.2175,7880.4844 1434.7095,0 0,66.082 -1434.7095,0 0,-66.082 z"
             style="fill:#cdced0;fill-opacity:1;fill-rule:nonzero;stroke:none"
             id="path72-3"
             inkscape:connector-curvature="0" /></g></g></g></g></svg>